<?xml version="1.0" encoding="UTF-8" standalone="no"?>
<svg xmlns:svg="http://www.w3.org/2000/svg" xmlns="http://www.w3.org/2000/svg" viewBox="160 140 230 50" id="svg2" version="1.1">
  <g>
    <g>
      <path d="m 177.99984,175.39026 q -3.87,0 -6.03,-1.53 -2.115,-1.575 -2.655,-4.815 -0.09,-0.945 0.405,-1.44 0.495,-0.54 1.44,-0.54 0.9,0 1.35,0.45 0.45,0.405 0.63,1.395 0.315,1.53 1.395,2.115 1.125,0.585 3.465,0.585 l 6.48,0 q 1.98,0 3.015,-0.45 1.08,-0.45 1.53,-1.485 0.45,-1.08 0.45,-3.015 0,-2.88 -1.08,-3.96 -1.08,-1.08 -3.915,-1.08 l -5.58,0 q -4.23,0 -6.3,-2.07 -2.07,-2.07 -2.07,-6.345 0,-4.23 2.025,-6.255 2.07,-2.07 6.3,-2.07 l 5.355,0 q 7.11,0 8.19,5.94 0.135,0.945 -0.36,1.485 -0.495,0.495 -1.485,0.495 -0.9,0 -1.35,-0.45 -0.45,-0.45 -0.585,-1.395 -0.36,-1.305 -1.35,-1.8 -0.99,-0.495 -3.06,-0.495 l -5.355,0 q -1.845,0 -2.835,0.405 -0.945,0.405 -1.35,1.395 -0.36,0.945 -0.36,2.745 0,1.845 0.405,2.835 0.405,0.945 1.35,1.395 0.99,0.405 2.835,0.405 l 5.58,0 q 4.455,0 6.615,2.16 2.16,2.16 2.16,6.66 0,4.455 -2.16,6.615 -2.16,2.115 -6.615,2.115 l -6.48,0 z"/>
      <path d="m 202.26812,175.39026 q -1.44,0 -1.44,-1.44 l 0,-23.72 q 0,-1.44 1.44,-1.44 1.44,0 1.44,1.44 l 0,23.72 q 0,1.44 -1.44,1.44 z"/>
      <path d="m 219.6075,175.39026 q -4.48,0 -6.6,-2.12 -2.12,-2.12 -2.12,-6.6 l 0,-9.16 q 0,-4.52 2.08,-6.64 2.12,-2.12 6.6,-2.08 l 4.84,0 q 3.72,0 5.64,1.56 1.92,1.52 2.2,4.88 0.08,0.72 -0.32,1.12 -0.36,0.36 -1.08,0.36 -1.28,0 -1.48,-1.44 -0.2,-2.04 -1.32,-2.8 -1.08,-0.8 -3.64,-0.8 l -4.84,0 q -2.2,-0.04 -3.48,0.52 -1.24,0.52 -1.8,1.8 -0.52,1.28 -0.52,3.52 l 0,9.16 q 0,2.24 0.52,3.52 0.56,1.24 1.8,1.8 1.28,0.52 3.52,0.52 l 4.8,0 q 2,0 3.04,-0.44 1.08,-0.44 1.52,-1.52 0.48,-1.08 0.48,-3.08 l 0,-2.12 -3.6,-0.04 q -1.44,0 -1.44,-1.44 0,-0.68 0.36,-1.04 0.4,-0.4 1.08,-0.4 l 5.04,0.04 q 0.68,0 1.04,0.4 0.4,0.36 0.4,1.04 l 0,3.56 q 0,4.12 -1.92,6.04 -1.88,1.88 -6,1.88 l -4.8,0 z"/>
      <path d="m 259.14938,148.79026 q 0.68,0 1.03999,0.4 0.40001,0.36 0.40001,1.04 l 0,23.72 q 0,0.68 -0.40001,1.08 -0.35999,0.36 -1.03999,0.36 -0.40001,0 -0.76001,-0.2 -0.32,-0.2 -0.67999,-0.64 l -15.72001,-20.24 0,19.64 q 0,0.68 -0.4,1.08 -0.36,0.36 -1.04,0.36 -0.68,0 -1.07999,-0.36 -0.36001,-0.4 -0.36001,-1.08 l 0,-23.72 q 0,-0.68 0.36001,-1.04 0.39999,-0.4 1.07999,-0.4 0.84,0 1.44,0.84 l 15.72001,20.2 0,-19.6 q 0,-0.68 0.35999,-1.04 0.40001,-0.4 1.08001,-0.4 z"/>
      <path d="m 288.8425,173.35026 q 0.16,0.32 0.16,0.68 0,0.84 -0.92,1.2 -0.36,0.16 -0.72,0.16 -0.8,0 -1.16,-0.92 l -2.36,-5.64 -12.68,0 -2.28,5.64 q -0.36,0.92 -1.2,0.92 -0.36,0 -0.68,-0.16 -0.96,-0.36 -0.96,-1.2 0,-0.36 0.16,-0.68 l 9.64,-23.44 q 0.48,-1.12 1.64,-1.12 l 0.08,0 q 1.08,0 1.56,1.12 l 9.72,23.44 z m -16.52,-7.4 10.32,0 -5.24,-12.6 -5.08,12.6 z"/>
      <path d="m 295.86187,175.39026 q -1.44,0 -1.44,-1.44 l 0,-23.72 q 0,-1.44 1.44,-1.44 1.44,0 1.44,1.44 l 0,22.28 11.48001,0 q 1.43999,0 1.43999,1.44 0,1.44 -1.43999,1.44 l -12.92001,0 z"/>
      <path d="m 338,172.10526 q 0.495,0.63 0.495,1.26 0,0.81 -0.765,1.395 -0.54,0.495 -1.26,0.495 -0.81,0 -1.395,-0.765 l -11.025,-13.635 -1.935,2.025 0,10.62 q 0,0.9 -0.495,1.395 -0.495,0.495 -1.395,0.495 -0.9,0 -1.395,-0.495 -0.495,-0.495 -0.495,-1.395 l 0,-26.73 q 0,-0.9 0.495,-1.395 0.495,-0.495 1.395,-0.495 0.9,0 1.395,0.495 0.495,0.495 0.495,1.395 l 0,10.71 11.475,-11.88 q 0.675,-0.675 1.35,-0.675 0.675,0 1.305,0.63 0.675,0.675 0.675,1.35 0,0.675 -0.63,1.305 l -9.54,9.9 11.25,13.995 z"/>
    </g>
    <g transform="translate(360,144) scale(0.160)">
      <path style="fill:#ffcc00;fill-opacity:1;stroke:none;stroke-width:4.97118664;stroke-miterlimit:4;stroke-dasharray:none;stroke-opacity:1" d="m 0,0 -86,50 0,100 86,50  z"/>
      <path style="fill:#003399;fill-opacity:1;stroke:none;stroke-width:4.97118664;stroke-miterlimit:4;stroke-dasharray:none;stroke-opacity:1" d="m 0,0 86,50 0,100 -86,50  z"/>
    </g>
  </g>
</svg>