<?xml version="1.0" encoding="utf-8"?>
<!-- Generator: Adobe Illustrator 22.0.0, SVG Export Plug-In . SVG Version: 6.00 Build 0)  -->
<svg version="1.1" id="Ebene_1" xmlns="http://www.w3.org/2000/svg"
	xmlns:xlink="http://www.w3.org/1999/xlink" x="0px" y="0px"
	viewBox="0 0 157.197 111.458" style="enable-background:new 0 0 157.197 111.458;"
	xml:space="preserve">
<style type="text/css">
	.st0{fill:#003399;}
	.st1{clip-path:url(#SVGID_2_);}
	.st2{clip-path:url(#SVGID_4_);fill:#003399;}
	.st3{clip-path:url(#SVGID_4_);fill:#FFCC00;}
</style>
<g>
	<g>
		<g>
			<defs>
				<rect id="SVGID_1_" x="0" y="-0.598" width="157.197" height="111.402"/>
			</defs>
			<clipPath id="SVGID_2_">
				<use xlink:href="#SVGID_1_"  style="overflow:visible;"/>
			</clipPath>
			<g class="st1">
				<defs>
					<rect id="SVGID_3_" x="0" y="-0.598" width="157.197" height="111.402"/>
				</defs>
				<clipPath id="SVGID_4_">
					<use xlink:href="#SVGID_3_"  style="overflow:visible;"/>
				</clipPath>
				<path class="st2" d="M0.607,75.285c2.957-1.872,10.882,6.629,21.713,14.362c7.039,5.026,18.661,8.853,28.952,8.143
					c16.757-1.156,23.71-4.386,37.85-11.763c11.088-5.785,22.27-13.948,31.82-19.767c5.646-3.441,12.449-6.567,20.107-8.932
					c9.948-3.071,16.148-0.501,16.148,0.494c0,1.708-11.752,7.285-20.688,13.323C125.019,78.909,119.63,82.676,117,84.402
					c-7.518,4.935-20.387,13.411-25.948,16.092c-8.695,4.192-18.633,8.229-30.899,9.782c-16.073,2.035-33.311-1.882-44.718-10.558
					C1.721,89.287-1.548,76.65,0.607,75.285"/>
				<path class="st2" d="M23.112,84.347c0,0,12.419-32.107,14.23-36.798c5.747-14.886,8.213-22.798,17.158-26.123
					c4.664-1.734,13.022-0.163,16.008,0.066c4.411,0.339,5.467-0.955,6.464-3.449c2.122-5.303,3.954-9.546,3.664-10.414
					c-0.073-0.219-1.474-0.592-1.639-1.253c-0.096-0.386,2.626-6.609,3.278-6.963c0.676-0.365,23.721,8.409,23.914,9.374
					c0.179,0.896-1.929,6.653-2.797,7.135c-0.678,0.377-1.84-0.767-2.7-0.289c-0.607,0.337-1.472,2.853-4.242,9.931
					c-0.868,2.218-0.169,4.714,2.218,6.653c3.085,2.507,9.103,6.307,11.956,11.282c3.761,6.557,1.929,10.501-3.568,24.202
					l-0.385,1.061c0,0-9.427,7.917-26.617,16.06c-10.066,4.768-19.451,7.009-26.897,7.863c-1.202,0.138-4.739-2.688-7.6-2.967
					c-2.857-0.28-10.651,0.869-11.309,0.638C28.789,88.433,23.112,84.347,23.112,84.347"/>
				<path class="st3" d="M74.562,38.485c0,0-12.623-6.709-17.562-2.973c-4.817,3.645-22.751,54.866-22.751,54.866
					s2.231,0.89,6.573,1.863c2.821,0.632,5.248,0.791,8.143,0.746c2.306-0.036,4.192-0.279,4.192-0.279L74.562,38.485z"/>
			</g>
		</g>
	</g>
</g>
<g>
</g>
<g>
</g>
<g>
</g>
<g>
</g>
<g>
</g>
<g>
</g>
<g>
</g>
<g>
</g>
<g>
</g>
<g>
</g>
<g>
</g>
<g>
</g>
<g>
</g>
<g>
</g>
<g>
</g>
</svg>
