<?xml version="1.0" encoding="UTF-8" standalone="no"?>
<!DOCTYPE svg PUBLIC "-//W3C//DTD SVG 1.0//EN" "http://www.w3.org/TR/2001/PR-SVG-20010719/DTD/svg10.dtd">
<svg width="48cm" height="42cm" viewBox="221 438 954 826" xmlns="http://www.w3.org/2000/svg" xmlns:xlink="http://www.w3.org/1999/xlink">
  <defs/>
  <g id="Background">
    <g>
      <line style="fill: none; stroke-opacity: 1; stroke-width: 10; stroke: #000000" x1="475.704" y1="1109.55" x2="994.652" y2="1109.02"/>
      <polygon style="fill: #000000; fill-opacity: 1; stroke-opacity: 1; stroke-width: 10; stroke: #000000" fill-rule="evenodd" points="475.699,1104.55 465.704,1109.56 475.709,1114.55 "/>
      <polygon style="fill: #000000; fill-opacity: 1; stroke-opacity: 1; stroke-width: 10; stroke: #000000" fill-rule="evenodd" points="1002.15,1109.01 992.157,1114.02 994.652,1109.02 992.147,1104.02 "/>
    </g>
    <g>
      <line style="fill: none; stroke-opacity: 1; stroke-width: 10; stroke: #000000" x1="840.336" y1="1156" x2="840.336" y2="1098"/>
      <path style="fill: #000000; fill-opacity: 1; stroke-opacity: 1; stroke-width: 10; stroke: #000000" fill-rule="evenodd" d="M 840.336 1098 C 845.336,1098 850.336,1103 850.336,1108 C 850.336,1113 845.336,1118 840.336,1118 C 835.336,1118 830.336,1113 830.336,1108 C 830.336,1103 835.336,1098 840.336,1098z"/>
    </g>
    <g>
      <line style="fill: none; stroke-opacity: 1; stroke-width: 10; stroke: #000000" x1="942.306" y1="1157.07" x2="942.306" y2="1099.07"/>
      <path style="fill: #000000; fill-opacity: 1; stroke-opacity: 1; stroke-width: 10; stroke: #000000" fill-rule="evenodd" d="M 942.306 1099.07 C 947.306,1099.07 952.306,1104.07 952.306,1109.07 C 952.306,1114.07 947.306,1119.07 942.306,1119.07 C 937.306,1119.07 932.306,1114.07 932.306,1109.07 C 932.306,1104.07 937.306,1099.07 942.306,1099.07z"/>
    </g>
    <g>
      <line style="fill: none; stroke-opacity: 1; stroke-width: 10; stroke: #000000" x1="890.304" y1="1115.98" x2="890.5" y2="1008.61"/>
      <path style="fill: #000000; fill-opacity: 1; stroke-opacity: 1; stroke-width: 10; stroke: #000000" fill-rule="evenodd" d="M 890.304 1115.98 C 885.304,1115.97 880.313,1110.97 880.322,1105.97 C 880.331,1100.97 885.341,1095.97 890.341,1095.98 C 895.34,1095.99 900.331,1101 900.322,1106 C 900.313,1111 895.304,1115.99 890.304,1115.98z"/>
    </g>
    <rect style="fill: #000000; fill-opacity: 1; stroke-opacity: 1; stroke-width: 2.35099e-37; stroke: #ffffff" x="798.044" y="1155.9" width="83" height="80" rx="0" ry="0"/>
    <rect style="fill: #ffffff; fill-opacity: 1; stroke-opacity: 1; stroke-width: 2; stroke: #000000" x="806.044" y="1163.9" width="68" height="51" rx="0" ry="0"/>
    <ellipse style="fill: #ffffff; fill-opacity: 1; stroke-opacity: 1; stroke-width: 2; stroke: #000000" cx="811.893" cy="1225.04" rx="6.33854" ry="6.27038"/>
    <ellipse style="fill: #ffffff; fill-opacity: 1; stroke-opacity: 1; stroke-width: 2; stroke: #000000" cx="830.329" cy="1225.22" rx="6.33854" ry="6.27038"/>
    <ellipse style="fill: #ffffff; fill-opacity: 1; stroke-opacity: 1; stroke-width: 2; stroke: #000000" cx="848.867" cy="1225.22" rx="6.33854" ry="6.27038"/>
    <ellipse style="fill: #ffffff; fill-opacity: 1; stroke-opacity: 1; stroke-width: 2; stroke: #000000" cx="867.133" cy="1225.49" rx="6.33854" ry="6.27038"/>
    <text font-size="12.8" style="fill: #000000; fill-opacity: 1; stroke: none;text-anchor:middle;font-family:sans-serif;font-style:normal;font-weight:normal" x="840.294" y="1198.4">
      <tspan x="840.294" y="1198.4">Instrument</tspan>
    </text>
    <rect style="fill: #000000; fill-opacity: 1; stroke-opacity: 1; stroke-width: 2.35099e-37; stroke: #ffffff" x="899.966" y="1156.02" width="83" height="80" rx="0" ry="0"/>
    <ellipse style="fill: #ffffff; fill-opacity: 1; stroke-opacity: 1; stroke-width: 2; stroke: #000000" cx="908.567" cy="1227.91" rx="6.33854" ry="6.27038"/>
    <ellipse style="fill: #ffffff; fill-opacity: 1; stroke-opacity: 1; stroke-width: 2; stroke: #000000" cx="975.055" cy="1228.62" rx="6.33854" ry="6.27038"/>
    <ellipse style="fill: #ffffff; fill-opacity: 1; stroke-opacity: 1; stroke-width: 2; stroke: #000000" cx="941.402" cy="1195.98" rx="37.83" ry="36.4158"/>
    <text font-size="12.8" style="fill: #000000; fill-opacity: 1; stroke: none;text-anchor:middle;font-family:sans-serif;font-style:normal;font-weight:normal" x="941.636" y="1200.91">
      <tspan x="941.636" y="1200.91">Instrument</tspan>
    </text>
    <rect style="fill: #000000; fill-opacity: 1; stroke-opacity: 1; stroke-width: 2; stroke: #ffffff" x="493.348" y="1154.94" width="165.977" height="108.206" rx="0" ry="0"/>
    <rect style="fill: #ffffff; fill-opacity: 1; stroke-opacity: 1; stroke-width: 2; stroke: #000000" x="505.27" y="1165.94" width="122.878" height="87.1148" rx="0" ry="0"/>
    <ellipse style="fill: #ffffff; fill-opacity: 1; stroke-opacity: 1; stroke-width: 2; stroke: #000000" cx="642.811" cy="1204.86" rx="6.33854" ry="6.27038"/>
    <ellipse style="fill: #ffffff; fill-opacity: 1; stroke-opacity: 1; stroke-width: 2; stroke: #000000" cx="642.387" cy="1224.53" rx="6.33854" ry="6.27038"/>
    <ellipse style="fill: #ffffff; fill-opacity: 1; stroke-opacity: 1; stroke-width: 2; stroke: #000000" cx="642.039" cy="1244.96" rx="6.33854" ry="6.27038"/>
    <ellipse style="fill: #ffffff; fill-opacity: 1; stroke-opacity: 1; stroke-width: 2; stroke: #000000" cx="642.425" cy="1179.8" rx="11.1555" ry="11.2359"/>
    <text font-size="12.8" style="fill: #000000; fill-opacity: 1; stroke: none;text-anchor:middle;font-family:sans-serif;font-style:normal;font-weight:normal" x="566.898" y="1206.74">
      <tspan x="566.898" y="1206.74">Multi-Function</tspan>
      <tspan x="566.898" y="1222.74">Display</tspan>
    </text>
    <g>
      <line style="fill: none; stroke-opacity: 1; stroke-width: 10; stroke: #000000" x1="576.454" y1="1156.94" x2="576.454" y2="1098.94"/>
      <path style="fill: #000000; fill-opacity: 1; stroke-opacity: 1; stroke-width: 10; stroke: #000000" fill-rule="evenodd" d="M 576.454 1098.94 C 581.454,1098.94 586.454,1103.94 586.454,1108.94 C 586.454,1113.94 581.454,1118.94 576.454,1118.94 C 571.454,1118.94 566.454,1113.94 566.454,1108.94 C 566.454,1103.94 571.454,1098.94 576.454,1098.94z"/>
    </g>
    <text font-size="12.8" style="fill: #ffffff; fill-opacity: 1; stroke: none;text-anchor:start;font-family:sans-serif;font-style:normal;font-weight:normal" x="477.656" y="936.218">
      <tspan x="477.656" y="936.218"></tspan>
    </text>
    <g>
      <rect style="fill: #ffffff; fill-opacity: 1; stroke-opacity: 1; stroke-width: 10; stroke: #000000" x="428.1" y="861.27" width="91.2459" height="59.7818" rx="0" ry="0"/>
      <text font-size="13.5467" style="fill: #000000; fill-opacity: 1; stroke: none;text-anchor:middle;font-family:sans-serif;font-style:normal;font-weight:700" x="473.723" y="895.269">
        <tspan x="473.723" y="895.269">AIS</tspan>
      </text>
    </g>
    <g>
      <rect style="fill: #ffffff; fill-opacity: 1; stroke-opacity: 1; stroke-width: 10; stroke: #000000" x="427.37" y="947.224" width="91.2459" height="59.7818" rx="0" ry="0"/>
      <text font-size="13.5467" style="fill: #000000; fill-opacity: 1; stroke: none;text-anchor:middle;font-family:sans-serif;font-style:normal;font-weight:700" x="472.993" y="981.223">
        <tspan x="472.993" y="981.223">GPS</tspan>
      </text>
    </g>
    <g>
      <line style="fill: none; stroke-opacity: 1; stroke-width: 6; stroke: #000000" x1="516.744" y1="977.582" x2="696.9" y2="977.677"/>
      <polygon style="fill: #000000; fill-opacity: 1; stroke-opacity: 1; stroke-width: 6; stroke: #000000" fill-rule="evenodd" points="704.4,977.68 694.397,982.675 696.9,977.677 694.402,972.675 "/>
    </g>
    <g>
      <line style="fill: none; stroke-opacity: 1; stroke-width: 6; stroke: #000000" x1="517.034" y1="890.644" x2="697.664" y2="890.718"/>
      <polygon style="fill: #000000; fill-opacity: 1; stroke-opacity: 1; stroke-width: 6; stroke: #000000" fill-rule="evenodd" points="705.164,890.721 695.162,895.717 697.664,890.718 695.166,885.717 "/>
    </g>
    <text font-size="13.5467" style="fill: #000000; fill-opacity: 1; stroke: none;text-anchor:start;font-family:sans-serif;font-style:normal;font-weight:700" x="576.278" y="880.786">
      <tspan x="576.278" y="880.786">NMEA0183</tspan>
    </text>
    <text font-size="13.5467" style="fill: #000000; fill-opacity: 1; stroke: none;text-anchor:start;font-family:sans-serif;font-style:normal;font-weight:700" x="577.634" y="967.952">
      <tspan x="577.634" y="967.952">NMEA0183</tspan>
    </text>
    <text font-size="13.5467" style="fill: #000000; fill-opacity: 1; stroke: none;text-anchor:start;font-family:sans-serif;font-style:normal;font-weight:700" x="635.164" y="1093.13">
      <tspan x="635.164" y="1093.13">NMEA2000</tspan>
    </text>
    <rect style="fill: #000000; fill-opacity: 1; stroke-opacity: 1; stroke-width: 2; stroke: #000000" x="925.424" y="795.999" width="8.1941" height="63.848" rx="0" ry="0"/>
    <path style="fill: none; stroke-opacity: 1; stroke-width: 10; stroke: #000000" d="M 916.782,762.263 A 18.8752,18.8752 0 0 0 900.938,790.453"/>
    <path style="fill: none; stroke-opacity: 1; stroke-width: 10; stroke: #000000" d="M 905.523,742.37 A 31.6091,31.6091 0 0 0 879.523,788.37"/>
    <path style="fill: none; stroke-opacity: 1; stroke-width: 10; stroke: #000000" d="M 896.502,720.189 A 51.324,51.324 0 0 0 853.403,783.462"/>
    <rect style="fill: #717171; fill-opacity: 1; stroke-opacity: 1; stroke-width: 2; stroke-linejoin: round; stroke: #ffffff" x="849.444" y="439.875" width="161.572" height="224.326" rx="8" ry="8"/>
    <rect style="fill: #ffffff; fill-opacity: 1; stroke-opacity: 1; stroke-width: 2; stroke: #000000" x="863.148" y="453.581" width="134.163" height="187.539" rx="0" ry="0"/>
    <ellipse style="fill: #ffffff; fill-opacity: 1; stroke-opacity: 1; stroke-width: 2; stroke: #000000" cx="930.953" cy="651.939" rx="6.33854" ry="6.27038"/>
    <text font-size="12.8" style="fill: #000000; fill-opacity: 1; stroke: none;text-anchor:middle;font-family:sans-serif;font-style:normal;font-weight:normal" x="927.652" y="541.395">
      <tspan x="927.652" y="541.395">Mobile</tspan>
      <tspan x="927.652" y="557.395">Device</tspan>
    </text>
    <g>
      <path style="fill: #b6c7c9; fill-opacity: 1; stroke: none" fill-rule="evenodd" d="M 398.538 478.857 L 398.489,477.291 L 398.316,475.724 L 397.995,474.186 L 397.551,472.647 L 396.959,471.081 L 396.293,469.57 L 395.453,468.086 L 394.516,466.63 L 393.504,465.174 L 392.319,463.8 L 391.061,462.426 L 389.679,461.135 L 388.173,459.843 L 386.594,458.634 L 384.916,457.453 L 383.114,456.354 L 381.263,455.282 L 379.338,454.293 L 377.315,453.359 L 375.217,452.507 L 373.045,451.683 L 370.799,450.996 L 368.554,450.309 L 366.209,449.732 L 363.815,449.21 L 361.421,448.771 L 358.978,448.413 L 356.51,448.166 L 354.018,447.946 L 351.501,447.836 L 348.983,447.782 L 348.983,447.782 L 346.491,447.836 L 343.949,447.946 L 341.481,448.166 L 339.013,448.413 L 336.545,448.771 L 334.152,449.21 L 331.758,449.732 L 329.438,450.309 L 327.143,450.996 L 324.946,451.683 L 322.775,452.507 L 320.702,453.359 L 318.653,454.293 L 316.728,455.282 L 314.853,456.354 L 313.051,457.453 L 311.373,458.634 L 309.794,459.843 L 308.288,461.135 L 306.906,462.426 L 305.648,463.8 L 304.488,465.174 L 303.427,466.63 L 302.538,468.086 L 301.699,469.57 L 301.008,471.081 L 300.416,472.647 L 300.021,474.186 L 299.7,475.724 L 299.478,477.291 L 299.453,478.857 L 299.453,478.857 L 299.478,480.45 L 299.7,482.016 L 300.021,483.583 L 300.416,485.121 L 301.008,486.66 L 301.699,488.171 L 302.538,489.655 L 303.427,491.138 L 304.488,492.567 L 305.648,493.941 L 306.906,495.315 L 308.288,496.634 L 309.794,497.897 L 311.373,499.106 L 313.051,500.288 L 314.853,501.414 L 316.728,502.431 L 318.653,503.475 L 320.702,504.409 L 322.775,505.261 L 324.946,506.03 L 327.143,506.772 L 329.438,507.432 L 331.758,508.009 L 334.152,508.531 L 336.545,508.97 L 339.013,509.3 L 341.481,509.575 L 343.949,509.822 L 346.491,509.904 L 348.983,509.932 L 348.983,509.932 L 351.501,509.904 L 354.018,509.822 L 356.51,509.575 L 358.978,509.3 L 361.421,508.97 L 363.815,508.531 L 366.209,508.009 L 368.554,507.432 L 370.799,506.772 L 373.045,506.03 L 375.217,505.261 L 377.315,504.409 L 379.338,503.475 L 381.263,502.431 L 383.114,501.414 L 384.916,500.288 L 386.594,499.106 L 388.173,497.897 L 389.679,496.634 L 391.061,495.315 L 392.319,493.941 L 393.504,492.567 L 394.516,491.138 L 395.453,489.655 L 396.293,488.171 L 396.959,486.66 L 397.551,485.121 L 397.995,483.583 L 398.316,482.016 L 398.489,480.45 L 398.538,478.857z"/>
      <path style="fill: #b6c7c9; fill-opacity: 1; stroke: none" fill-rule="evenodd" d="M 320.874 495.177 L 320.825,493.611 L 320.652,492.045 L 320.455,490.506 L 320.109,488.94 L 319.665,487.402 L 319.122,485.89 L 318.481,484.407 L 317.79,482.951 L 317,481.494 L 316.111,480.121 L 315.149,478.747 L 314.088,477.455 L 312.903,476.164 L 311.694,474.955 L 310.411,473.774 L 309.029,472.675 L 307.647,471.603 L 306.116,470.614 L 304.586,469.68 L 302.958,468.855 L 301.329,468.004 L 299.626,467.262 L 297.849,466.63 L 296.072,466.053 L 294.246,465.531 L 292.395,465.091 L 290.52,464.734 L 288.619,464.487 L 286.744,464.267 L 284.819,464.13 L 282.894,464.102 L 282.894,464.102 L 280.969,464.13 L 279.044,464.267 L 277.119,464.487 L 275.243,464.734 L 273.343,465.091 L 271.492,465.531 L 269.691,466.053 L 267.914,466.63 L 266.162,467.262 L 264.459,468.004 L 262.781,468.855 L 261.201,469.68 L 259.622,470.614 L 258.141,471.603 L 256.734,472.675 L 255.352,473.774 L 254.069,474.955 L 252.835,476.164 L 251.675,477.455 L 250.639,478.747 L 249.652,480.121 L 248.788,481.494 L 247.973,482.951 L 247.258,484.407 L 246.641,485.89 L 246.098,487.402 L 245.654,488.94 L 245.333,490.506 L 245.086,492.045 L 244.938,493.611 L 244.889,495.177 L 244.889,495.177 L 244.938,496.771 L 245.086,498.337 L 245.333,499.903 L 245.654,501.442 L 246.098,502.98 L 246.641,504.492 L 247.258,505.975 L 247.973,507.432 L 248.788,508.888 L 249.652,510.262 L 250.639,511.635 L 251.675,512.927 L 252.835,514.218 L 254.069,515.427 L 255.352,516.608 L 256.734,517.707 L 258.141,518.752 L 259.622,519.741 L 261.201,520.73 L 262.781,521.582 L 264.459,522.351 L 266.162,523.12 L 267.914,523.752 L 269.691,524.329 L 271.492,524.851 L 273.343,525.263 L 275.243,525.621 L 277.119,525.895 L 279.044,526.143 L 280.969,526.225 L 282.894,526.252 L 282.894,526.252 L 284.819,526.225 L 286.744,526.143 L 288.619,525.895 L 290.52,525.621 L 292.395,525.263 L 294.246,524.851 L 296.072,524.329 L 297.849,523.752 L 299.626,523.12 L 301.329,522.351 L 302.958,521.582 L 304.586,520.73 L 306.116,519.741 L 307.647,518.752 L 309.029,517.707 L 310.411,516.608 L 311.694,515.427 L 312.903,514.218 L 314.088,512.927 L 315.149,511.635 L 316.111,510.262 L 317,508.888 L 317.79,507.432 L 318.481,505.975 L 319.122,504.492 L 319.665,502.98 L 320.109,501.442 L 320.455,499.903 L 320.652,498.337 L 320.825,496.771 L 320.874,495.177z"/>
      <path style="fill: #b6c7c9; fill-opacity: 1; stroke: none" fill-rule="evenodd" d="M 272.973 526.912 L 272.948,525.621 L 272.874,524.329 L 272.702,523.038 L 272.479,521.774 L 272.159,520.565 L 271.788,519.301 L 271.394,518.065 L 270.925,516.883 L 270.382,515.702 L 269.765,514.575 L 269.098,513.504 L 268.383,512.405 L 267.618,511.361 L 266.803,510.344 L 265.915,509.41 L 265.002,508.531 L 264.064,507.624 L 263.077,506.827 L 262.016,506.058 L 260.93,505.343 L 259.819,504.711 L 258.659,504.107 L 257.499,503.585 L 256.29,503.118 L 255.056,502.678 L 253.822,502.348 L 252.564,502.019 L 251.256,501.826 L 249.972,501.662 L 248.714,501.579 L 247.406,501.524 L 247.406,501.524 L 246.098,501.579 L 244.79,501.662 L 243.507,501.826 L 242.248,502.019 L 240.965,502.348 L 239.706,502.678 L 238.497,503.118 L 237.312,503.585 L 236.103,504.107 L 234.943,504.711 L 233.833,505.343 L 232.747,506.058 L 231.71,506.827 L 230.698,507.624 L 229.761,508.531 L 228.847,509.41 L 227.984,510.344 L 227.145,511.361 L 226.38,512.405 L 225.664,513.504 L 224.998,514.575 L 224.43,515.702 L 223.887,516.883 L 223.418,518.065 L 222.974,519.301 L 222.604,520.565 L 222.332,521.774 L 222.11,523.038 L 221.913,524.329 L 221.814,525.621 L 221.814,526.912 L 221.814,526.912 L 221.814,528.148 L 221.913,529.44 L 222.11,530.704 L 222.332,531.967 L 222.604,533.259 L 222.974,534.468 L 223.418,535.677 L 223.887,536.886 L 224.43,538.067 L 224.998,539.194 L 225.664,540.293 L 226.38,541.364 L 227.145,542.408 L 227.984,543.397 L 228.847,544.332 L 229.761,545.238 L 230.698,546.145 L 231.71,546.914 L 232.747,547.684 L 233.833,548.398 L 234.943,549.057 L 236.103,549.662 L 237.312,550.184 L 238.497,550.651 L 239.706,551.063 L 240.965,551.42 L 242.248,551.723 L 243.507,551.97 L 244.79,552.107 L 246.098,552.19 L 247.406,552.245 L 247.406,552.245 L 248.714,552.19 L 249.972,552.107 L 251.256,551.97 L 252.564,551.723 L 253.822,551.42 L 255.056,551.063 L 256.29,550.651 L 257.499,550.184 L 258.659,549.662 L 259.819,549.057 L 260.93,548.398 L 262.016,547.684 L 263.077,546.914 L 264.064,546.145 L 265.002,545.238 L 265.915,544.332 L 266.803,543.397 L 267.618,542.408 L 268.383,541.364 L 269.098,540.293 L 269.765,539.194 L 270.382,538.067 L 270.925,536.886 L 271.394,535.677 L 271.788,534.468 L 272.159,533.259 L 272.479,531.967 L 272.702,530.704 L 272.874,529.44 L 272.948,528.148 L 272.973,526.912z"/>
      <path style="fill: #b6c7c9; fill-opacity: 1; stroke: none" fill-rule="evenodd" d="M 314.285 551.338 L 314.26,549.937 L 314.088,548.563 L 313.816,547.162 L 313.495,545.788 L 313.051,544.441 L 312.533,543.095 L 311.867,541.776 L 311.176,540.485 L 310.337,539.276 L 309.448,538.012 L 308.436,536.803 L 307.375,535.677 L 306.24,534.55 L 305.006,533.424 L 303.698,532.407 L 302.316,531.418 L 300.86,530.511 L 299.33,529.605 L 297.775,528.808 L 296.146,528.011 L 294.443,527.324 L 292.716,526.665 L 290.939,526.088 L 289.138,525.566 L 287.287,525.126 L 285.386,524.769 L 283.511,524.439 L 281.586,524.164 L 279.661,523.999 L 277.711,523.89 L 275.737,523.862 L 275.737,523.862 L 273.787,523.89 L 271.862,523.999 L 269.888,524.164 L 267.988,524.439 L 266.063,524.769 L 264.212,525.126 L 262.361,525.566 L 260.535,526.088 L 258.758,526.665 L 257.055,527.324 L 255.352,528.011 L 253.724,528.808 L 252.144,529.605 L 250.639,530.511 L 249.183,531.418 L 247.801,532.407 L 246.493,533.424 L 245.259,534.55 L 244.099,535.677 L 243.038,536.803 L 242.026,538.012 L 241.113,539.276 L 240.323,540.485 L 239.607,541.776 L 238.941,543.095 L 238.398,544.441 L 238.003,545.788 L 237.633,547.162 L 237.386,548.563 L 237.238,549.937 L 237.189,551.338 L 237.189,551.338 L 237.238,552.712 L 237.386,554.113 L 237.633,555.487 L 238.003,556.861 L 238.398,558.207 L 238.941,559.553 L 239.607,560.899 L 240.323,562.191 L 241.113,563.427 L 242.026,564.636 L 243.038,565.845 L 244.099,566.999 L 245.259,568.153 L 246.493,569.252 L 247.801,570.269 L 249.183,571.23 L 250.639,572.165 L 252.144,573.044 L 253.724,573.868 L 255.352,574.665 L 257.055,575.352 L 258.758,576.011 L 260.535,576.561 L 262.361,577.083 L 264.212,577.522 L 266.063,577.907 L 267.988,578.264 L 269.888,578.511 L 271.862,578.676 L 273.787,578.786 L 275.737,578.786 L 275.737,578.786 L 277.711,578.786 L 279.661,578.676 L 281.586,578.511 L 283.511,578.264 L 285.386,577.907 L 287.287,577.522 L 289.138,577.083 L 290.939,576.561 L 292.716,576.011 L 294.443,575.352 L 296.146,574.665 L 297.775,573.868 L 299.33,573.044 L 300.86,572.165 L 302.316,571.23 L 303.698,570.269 L 305.006,569.252 L 306.24,568.153 L 307.375,566.999 L 308.436,565.845 L 309.448,564.636 L 310.337,563.427 L 311.176,562.191 L 311.867,560.899 L 312.533,559.553 L 313.051,558.207 L 313.495,556.861 L 313.816,555.487 L 314.088,554.113 L 314.26,552.712 L 314.285,551.338z"/>
      <path style="fill: #b6c7c9; fill-opacity: 1; stroke: none" fill-rule="evenodd" d="M 406.806 565.543 L 406.707,563.867 L 406.509,562.191 L 406.115,560.57 L 405.596,558.949 L 404.955,557.328 L 404.165,555.761 L 403.227,554.223 L 402.141,552.657 L 400.907,551.146 L 399.575,549.689 L 398.069,548.288 L 396.49,546.914 L 394.762,545.568 L 392.936,544.277 L 390.937,543.04 L 388.914,541.886 L 386.742,540.76 L 384.471,539.716 L 382.152,538.754 L 379.684,537.847 L 377.191,536.996 L 374.6,536.254 L 371.959,535.539 L 369.22,534.935 L 366.481,534.385 L 363.667,533.946 L 360.854,533.561 L 357.942,533.286 L 355.104,533.094 L 352.167,532.929 L 349.255,532.929 L 349.255,532.929 L 346.343,532.929 L 343.431,533.094 L 340.543,533.286 L 337.681,533.561 L 334.818,533.946 L 332.029,534.385 L 329.265,534.935 L 326.575,535.539 L 323.885,536.254 L 321.343,536.996 L 318.801,537.847 L 316.383,538.754 L 314.038,539.716 L 311.793,540.76 L 309.621,541.886 L 307.548,543.04 L 305.598,544.277 L 303.772,545.568 L 302.02,546.914 L 300.416,548.288 L 298.935,549.689 L 297.627,551.146 L 296.393,552.657 L 295.307,554.223 L 294.369,555.761 L 293.555,557.328 L 292.913,558.949 L 292.37,560.57 L 292,562.191 L 291.778,563.867 L 291.704,565.543 L 291.704,565.543 L 291.778,567.136 L 292,568.813 L 292.37,570.434 L 292.913,572.082 L 293.555,573.703 L 294.369,575.269 L 295.307,576.808 L 296.393,578.374 L 297.627,579.885 L 298.935,581.341 L 300.416,582.743 L 302.02,584.171 L 303.772,585.463 L 305.598,586.754 L 307.548,587.963 L 309.621,589.172 L 311.793,590.271 L 314.038,591.315 L 316.383,592.277 L 318.801,593.211 L 321.343,594.008 L 323.885,594.777 L 326.575,595.464 L 329.265,596.069 L 332.029,596.646 L 334.818,597.058 L 337.681,597.442 L 340.543,597.745 L 343.431,597.937 L 346.343,598.102 L 349.255,598.102 L 349.255,598.102 L 352.167,598.102 L 355.104,597.937 L 357.942,597.745 L 360.854,597.442 L 363.667,597.058 L 366.481,596.646 L 369.22,596.069 L 371.959,595.464 L 374.6,594.777 L 377.191,594.008 L 379.684,593.211 L 382.152,592.277 L 384.471,591.315 L 386.742,590.271 L 388.914,589.172 L 390.937,587.963 L 392.936,586.754 L 394.762,585.463 L 396.49,584.171 L 398.069,582.743 L 399.575,581.341 L 400.907,579.885 L 402.141,578.374 L 403.227,576.808 L 404.165,575.269 L 404.955,573.703 L 405.596,572.082 L 406.115,570.434 L 406.509,568.813 L 406.707,567.136 L 406.806,565.543z"/>
      <path style="fill: #b6c7c9; fill-opacity: 1; stroke: none" fill-rule="evenodd" d="M 438.74 490.342 L 438.715,489.133 L 438.567,487.869 L 438.296,486.632 L 438,485.423 L 437.555,484.242 L 437.062,483.033 L 436.445,481.852 L 435.729,480.698 L 434.964,479.599 L 434.125,478.472 L 433.163,477.4 L 432.126,476.356 L 431.04,475.395 L 429.831,474.406 L 428.597,473.499 L 427.24,472.647 L 425.858,471.768 L 424.426,470.999 L 422.896,470.284 L 421.341,469.597 L 419.762,468.965 L 418.084,468.388 L 416.381,467.866 L 414.653,467.399 L 412.877,466.987 L 411.1,466.712 L 409.274,466.383 L 407.447,466.163 L 405.572,466.025 L 403.721,465.943 L 401.845,465.888 L 401.845,465.888 L 399.945,465.943 L 398.094,466.025 L 396.218,466.163 L 394.392,466.383 L 392.591,466.712 L 390.789,466.987 L 389.037,467.399 L 387.285,467.866 L 385.582,468.388 L 383.904,468.965 L 382.3,469.597 L 380.77,470.284 L 379.24,470.999 L 377.808,471.768 L 376.426,472.647 L 375.093,473.499 L 373.835,474.406 L 372.626,475.395 L 371.54,476.356 L 370.528,477.4 L 369.541,478.472 L 368.702,479.599 L 367.937,480.698 L 367.221,481.852 L 366.604,483.033 L 366.11,484.242 L 365.691,485.423 L 365.345,486.632 L 365.123,487.869 L 365,489.133 L 364.926,490.342 L 364.926,490.342 L 365,491.578 L 365.123,492.814 L 365.345,494.023 L 365.691,495.26 L 366.11,496.469 L 366.604,497.65 L 367.221,498.832 L 367.937,499.986 L 368.702,501.14 L 369.541,502.211 L 370.528,503.255 L 371.54,504.327 L 372.626,505.316 L 373.835,506.25 L 375.093,507.184 L 376.426,508.063 L 377.808,508.888 L 379.24,509.657 L 380.77,510.426 L 382.3,511.113 L 383.904,511.718 L 385.582,512.322 L 387.285,512.817 L 389.037,513.256 L 390.789,513.696 L 392.591,514.026 L 394.392,514.3 L 396.218,514.548 L 398.094,514.658 L 399.945,514.795 L 401.845,514.795 L 401.845,514.795 L 403.721,514.795 L 405.572,514.658 L 407.447,514.548 L 409.274,514.3 L 411.1,514.026 L 412.877,513.696 L 414.653,513.256 L 416.381,512.817 L 418.084,512.322 L 419.762,511.718 L 421.341,511.113 L 422.896,510.426 L 424.426,509.657 L 425.858,508.888 L 427.24,508.063 L 428.597,507.184 L 429.831,506.25 L 431.04,505.316 L 432.126,504.327 L 433.163,503.255 L 434.125,502.211 L 434.964,501.14 L 435.729,499.986 L 436.445,498.832 L 437.062,497.65 L 437.555,496.469 L 438,495.26 L 438.296,494.023 L 438.567,492.814 L 438.715,491.578 L 438.74,490.342z"/>
      <path style="fill: #b6c7c9; fill-opacity: 1; stroke: none" fill-rule="evenodd" d="M 449.204 521.746 L 449.13,520.51 L 449.031,519.274 L 448.784,518.065 L 448.463,516.856 L 448.019,515.619 L 447.526,514.465 L 446.933,513.256 L 446.218,512.13 L 445.452,510.976 L 444.613,509.904 L 443.651,508.805 L 442.614,507.789 L 441.553,506.827 L 440.344,505.81 L 439.11,504.931 L 437.827,504.025 L 436.445,503.2 L 434.964,502.431 L 433.508,501.689 L 431.953,501.002 L 430.374,500.37 L 428.72,499.793 L 427.042,499.299 L 425.315,498.832 L 423.538,498.419 L 421.761,498.09 L 419.959,497.815 L 418.108,497.568 L 416.282,497.458 L 414.431,497.375 L 412.58,497.32 L 412.58,497.32 L 410.705,497.375 L 408.879,497.458 L 407.028,497.568 L 405.226,497.815 L 403.425,498.09 L 401.623,498.419 L 399.871,498.832 L 398.168,499.299 L 396.465,499.793 L 394.812,500.37 L 393.232,501.002 L 391.678,501.689 L 390.172,502.431 L 388.765,503.2 L 387.383,504.025 L 386.026,504.931 L 384.792,505.81 L 383.632,506.827 L 382.571,507.789 L 381.535,508.805 L 380.597,509.904 L 379.708,510.976 L 378.943,512.13 L 378.277,513.256 L 377.66,514.465 L 377.117,515.619 L 376.722,516.856 L 376.401,518.065 L 376.155,519.274 L 376.007,520.51 L 375.982,521.746 L 375.982,521.746 L 376.007,522.983 L 376.155,524.247 L 376.401,525.456 L 376.722,526.665 L 377.117,527.874 L 377.66,529.055 L 378.277,530.264 L 378.943,531.39 L 379.708,532.489 L 380.597,533.616 L 381.535,534.66 L 382.571,535.704 L 383.632,536.693 L 384.792,537.655 L 386.026,538.589 L 387.383,539.441 L 388.765,540.293 L 390.172,541.062 L 391.678,541.776 L 393.232,542.463 L 394.812,543.095 L 396.465,543.672 L 398.168,544.194 L 399.871,544.689 L 401.623,545.101 L 403.425,545.376 L 405.226,545.705 L 407.028,545.898 L 408.879,546.063 L 410.705,546.145 L 412.58,546.172 L 412.58,546.172 L 414.431,546.145 L 416.282,546.063 L 418.108,545.898 L 419.959,545.705 L 421.761,545.376 L 423.538,545.101 L 425.315,544.689 L 427.042,544.194 L 428.72,543.672 L 430.374,543.095 L 431.953,542.463 L 433.508,541.776 L 434.964,541.062 L 436.445,540.293 L 437.827,539.441 L 439.11,538.589 L 440.344,537.655 L 441.553,536.693 L 442.614,535.704 L 443.651,534.66 L 444.613,533.616 L 445.452,532.489 L 446.218,531.39 L 446.933,530.264 L 447.526,529.055 L 448.019,527.874 L 448.463,526.665 L 448.784,525.456 L 449.031,524.247 L 449.13,522.983 L 449.204,521.746z"/>
      <path style="fill: #b6c7c9; fill-opacity: 1; stroke: none" fill-rule="evenodd" d="M 442.047 547.711 L 441.997,545.705 L 441.849,543.645 L 441.652,541.666 L 441.331,539.633 L 440.912,537.655 L 440.393,535.704 L 439.801,533.781 L 439.085,531.885 L 438.32,530.044 L 437.506,528.231 L 436.568,526.472 L 435.532,524.796 L 434.446,523.148 L 433.261,521.582 L 432.027,520.07 L 430.744,518.614 L 429.362,517.24 L 427.955,516.004 L 426.45,514.795 L 424.92,513.696 L 423.34,512.652 L 421.736,511.718 L 420.058,510.839 L 418.355,510.069 L 416.578,509.41 L 414.826,508.888 L 413,508.393 L 411.198,508.036 L 409.397,507.789 L 407.571,507.624 L 405.72,507.596 L 405.72,507.596 L 403.869,507.624 L 402.043,507.789 L 400.192,508.036 L 398.39,508.393 L 396.613,508.888 L 394.812,509.41 L 393.084,510.069 L 391.381,510.839 L 389.703,511.718 L 388.05,512.652 L 386.47,513.696 L 384.94,514.795 L 383.484,516.004 L 382.028,517.24 L 380.671,518.614 L 379.363,520.07 L 378.129,521.582 L 376.969,523.148 L 375.859,524.796 L 374.871,526.472 L 373.934,528.231 L 373.07,530.044 L 372.305,531.885 L 371.638,533.781 L 371.046,535.704 L 370.528,537.655 L 370.108,539.633 L 369.788,541.666 L 369.541,543.645 L 369.393,545.705 L 369.343,547.711 L 369.343,547.711 L 369.393,549.744 L 369.541,551.805 L 369.788,553.783 L 370.108,555.789 L 370.528,557.822 L 371.046,559.745 L 371.638,561.641 L 372.305,563.565 L 373.07,565.378 L 373.934,567.191 L 374.871,568.977 L 375.859,570.653 L 376.969,572.274 L 378.129,573.868 L 379.363,575.379 L 380.671,576.808 L 382.028,578.182 L 383.484,579.473 L 384.94,580.655 L 386.47,581.781 L 388.05,582.798 L 389.703,583.759 L 391.381,584.611 L 393.084,585.38 L 394.812,586.012 L 396.613,586.589 L 398.39,587.029 L 400.192,587.386 L 402.043,587.633 L 403.869,587.798 L 405.72,587.881 L 405.72,587.881 L 407.571,587.798 L 409.397,587.633 L 411.198,587.386 L 413,587.029 L 414.826,586.589 L 416.578,586.012 L 418.355,585.38 L 420.058,584.611 L 421.736,583.759 L 423.34,582.798 L 424.92,581.781 L 426.45,580.655 L 427.955,579.473 L 429.362,578.182 L 430.744,576.808 L 432.027,575.379 L 433.261,573.868 L 434.446,572.274 L 435.532,570.653 L 436.568,568.977 L 437.506,567.191 L 438.32,565.378 L 439.085,563.565 L 439.801,561.641 L 440.393,559.745 L 440.912,557.822 L 441.331,555.789 L 441.652,553.783 L 441.849,551.805 L 441.997,549.744 L 442.047,547.711z"/>
      <path style="fill: #b6c7c9; fill-opacity: 1; stroke: none" fill-rule="evenodd" d="M 410.656 523.56 L 410.557,521.499 L 410.261,519.521 L 409.792,517.46 L 409.15,515.482 L 408.311,513.504 L 407.275,511.525 L 406.065,509.602 L 404.659,507.706 L 403.129,505.865 L 401.401,504.079 L 399.476,502.294 L 397.428,500.59 L 395.207,498.996 L 392.837,497.403 L 390.32,495.864 L 387.704,494.435 L 384.916,493.089 L 382.004,491.798 L 379.017,490.589 L 375.883,489.462 L 372.65,488.446 L 369.343,487.484 L 365.962,486.632 L 362.507,485.89 L 358.954,485.259 L 355.351,484.682 L 351.723,484.242 L 348.046,483.885 L 344.344,483.583 L 340.617,483.445 L 336.841,483.39 L 336.841,483.39 L 333.115,483.445 L 329.389,483.583 L 325.687,483.885 L 321.985,484.242 L 318.357,484.682 L 314.754,485.259 L 311.225,485.89 L 307.77,486.632 L 304.34,487.484 L 301.082,488.446 L 297.849,489.462 L 294.69,490.589 L 291.679,491.798 L 288.817,493.089 L 286.003,494.435 L 283.363,495.864 L 280.895,497.403 L 278.501,498.996 L 276.28,500.59 L 274.256,502.294 L 272.331,504.079 L 270.628,505.865 L 269.074,507.706 L 267.642,509.602 L 266.458,511.525 L 265.446,513.504 L 264.558,515.482 L 263.916,517.46 L 263.447,519.521 L 263.151,521.499 L 263.077,523.56 L 263.077,523.56 L 263.151,525.566 L 263.447,527.599 L 263.916,529.605 L 264.558,531.638 L 265.446,533.616 L 266.458,535.567 L 267.642,537.463 L 269.074,539.386 L 270.628,541.254 L 272.331,543.04 L 274.256,544.771 L 276.28,546.475 L 278.501,548.123 L 280.895,549.689 L 283.363,551.201 L 286.003,552.657 L 288.817,554.031 L 291.679,555.322 L 294.69,556.531 L 297.849,557.602 L 301.082,558.674 L 304.34,559.581 L 307.77,560.432 L 311.225,561.202 L 314.754,561.861 L 318.357,562.411 L 321.985,562.878 L 325.687,563.235 L 329.389,563.482 L 333.115,563.675 L 336.841,563.702 L 336.841,563.702 L 340.617,563.675 L 344.344,563.482 L 348.046,563.235 L 351.723,562.878 L 355.351,562.411 L 358.954,561.861 L 362.507,561.202 L 365.962,560.432 L 369.343,559.581 L 372.65,558.674 L 375.883,557.602 L 379.017,556.531 L 382.004,555.322 L 384.916,554.031 L 387.704,552.657 L 390.32,551.201 L 392.837,549.689 L 395.207,548.123 L 397.428,546.475 L 399.476,544.771 L 401.401,543.04 L 403.129,541.254 L 404.659,539.386 L 406.065,537.463 L 407.275,535.567 L 408.311,533.616 L 409.15,531.638 L 409.792,529.605 L 410.261,527.599 L 410.557,525.566 L 410.656,523.56z"/>
      <path style="fill: #b6c7c9; fill-opacity: 1; stroke: none" fill-rule="evenodd" d="M 349.551 478.582 L 398.39,471.658 L 397.773,470.147 L 397.008,468.608 L 396.169,467.097 L 395.157,465.641 L 394.071,464.24 L 392.837,462.811 L 391.554,461.464 L 390.073,460.173 L 388.568,458.909 L 386.939,457.7 L 385.187,456.546 L 383.361,455.475 L 381.436,454.431 L 379.437,453.414 L 377.364,452.507 L 375.217,451.683 L 373.045,450.859 L 370.75,450.172 L 368.43,449.54 L 366.086,448.963 L 363.643,448.468 L 361.199,448.084 L 358.732,447.727 L 356.239,447.479 L 353.722,447.314 L 351.18,447.232 L 348.663,447.232 L 346.121,447.314 L 343.579,447.424 L 341.111,447.644 L 338.618,448.001 L 336.15,448.359 L 333.707,448.853 L 331.313,449.375 L 328.994,449.98 L 326.723,450.666 L 324.477,451.436 L 322.306,452.233 L 320.257,453.139 L 318.234,454.101 L 316.284,455.118 L 314.433,456.189 L 312.681,457.343 L 311.028,458.552 L 309.448,459.788 L 307.967,461.08 L 306.585,462.426 L 305.327,463.8 L 304.241,465.256 L 303.18,466.657 L 302.267,468.169 L 301.502,469.652 L 300.86,471.191 L 300.317,472.73 L 349.551,478.582z"/>
      <path style="fill: none; stroke-opacity: 1; stroke-width: 0.06; stroke: #6c8f93" d="M 398.39 471.603 L 397.749,470.064 L 397.008,468.553 L 396.144,467.042 L 395.157,465.613 L 394.022,464.185 L 392.813,462.783 L 391.505,461.437 L 390.024,460.146 L 388.494,458.909 L 386.915,457.7 L 385.138,456.491 L 383.361,455.42 L 381.411,454.376 L 379.412,453.414 L 377.364,452.452 L 375.217,451.628 L 373.02,450.859 L 370.725,450.144 L 368.406,449.54 L 366.086,448.963 L 363.643,448.468 L 361.175,448.084 L 358.707,447.727 L 356.214,447.479 L 353.722,447.314 L 351.155,447.232 L 348.638,447.232 L 346.121,447.314 L 343.603,447.424 L 341.086,447.644 L 338.618,448.001 L 336.15,448.331 L 333.732,448.798 L 331.363,449.375 L 328.994,449.98 L 326.748,450.666 L 324.502,451.436 L 322.355,452.233 L 320.257,453.112 L 318.258,454.101 L 316.309,455.118 L 314.458,456.162 L 312.706,457.316 L 311.028,458.497 L 309.448,459.761 L 307.967,461.052 L 306.635,462.371 L 305.351,463.8 L 304.241,465.174 L 303.204,466.63 L 302.316,468.086 L 301.502,469.597 L 300.86,471.136 L 300.342,472.675"/>
      <path style="fill: #b6c7c9; fill-opacity: 1; stroke: none" fill-rule="evenodd" d="M 283.141 494.875 L 307.77,470.834 L 306.24,469.845 L 304.636,468.91 L 303.007,468.086 L 301.329,467.262 L 299.626,466.548 L 297.849,465.888 L 296.023,465.339 L 294.221,464.817 L 292.321,464.404 L 290.446,464.047 L 288.521,463.8 L 286.596,463.608 L 284.671,463.498 L 282.746,463.498 L 280.796,463.553 L 278.871,463.717 L 276.946,463.91 L 275.046,464.212 L 273.17,464.597 L 271.319,465.036 L 269.469,465.558 L 267.692,466.163 L 265.915,466.85 L 264.212,467.592 L 262.559,468.416 L 260.979,469.323 L 259.4,470.284 L 257.919,471.273 L 256.512,472.372 L 255.13,473.499 L 253.847,474.708 L 252.662,475.917 L 251.527,477.236 L 250.491,478.554 L 249.504,479.928 L 248.64,481.357 L 247.825,482.813 L 247.134,484.269 L 246.517,485.781 L 246.024,487.319 L 245.629,488.858 L 245.283,490.451 L 245.037,492.045 L 244.938,493.611 L 244.889,495.177 L 244.963,496.771 L 245.111,498.392 L 245.407,499.931 L 283.141,494.875z"/>
      <path style="fill: none; stroke-opacity: 1; stroke-width: 0.06; stroke: #6c8f93" d="M 307.647 470.751 L 306.116,469.762 L 304.562,468.855 L 302.933,468.004 L 301.23,467.234 L 299.478,466.493 L 297.726,465.861 L 295.924,465.284 L 294.073,464.789 L 292.222,464.404 L 290.297,464.047 L 288.397,463.8 L 286.497,463.608 L 284.572,463.498 L 282.598,463.498 L 280.722,463.553 L 278.797,463.717 L 276.823,463.91 L 274.947,464.24 L 273.096,464.597 L 271.196,465.091 L 269.395,465.586 L 267.618,466.218 L 265.866,466.905 L 264.138,467.647 L 262.485,468.471 L 260.905,469.378 L 259.375,470.312 L 257.894,471.356 L 256.438,472.4 L 255.13,473.581 L 253.822,474.735 L 252.613,475.999 L 251.502,477.263 L 250.441,478.582 L 249.504,479.983 L 248.64,481.412 L 247.825,482.868 L 247.11,484.324 L 246.517,485.863 L 246.024,487.347 L 245.58,488.913 L 245.283,490.506 L 245.037,492.073 L 244.938,493.639 L 244.889,495.232 L 245.012,496.798 L 245.16,498.392 L 245.407,499.986"/>
      <path style="fill: #b6c7c9; fill-opacity: 1; stroke: none" fill-rule="evenodd" d="M 276.28 551.036 L 236.646,550.184 L 236.646,551.64 L 236.72,553.014 L 236.917,554.47 L 237.238,555.844 L 237.608,557.245 L 238.077,558.674 L 238.694,559.993 L 239.336,561.339 L 240.15,562.658 L 241.014,563.922 L 241.927,565.213 L 243.013,566.422 L 244.099,567.604 L 245.333,568.73 L 246.591,569.829 L 247.949,570.873 L 249.405,571.835 L 250.886,572.769 L 252.44,573.703 L 254.069,574.5 L 255.747,575.269 L 257.499,576.011 L 259.276,576.616 L 261.053,577.22 L 262.929,577.742 L 264.829,578.182 L 266.754,578.539 L 268.704,578.869 L 270.653,579.116 L 272.627,579.281 L 274.626,579.363 L 276.65,579.363 L 278.6,579.308 L 280.599,579.198 L 282.573,579.034 L 284.523,578.786 L 286.497,578.429 L 288.372,578.017 L 290.297,577.577 L 292.099,577 L 293.925,576.451 L 295.702,575.764 L 297.38,575.022 L 299.083,574.225 L 300.638,573.373 L 302.193,572.494 L 276.28,551.036z"/>
      <path style="fill: none; stroke-opacity: 1; stroke-width: 0.06; stroke: #6c8f93" d="M 236.695 550.184 L 236.621,551.585 L 236.769,553.014 L 236.917,554.415 L 237.238,555.844 L 237.608,557.218 L 238.102,558.619 L 238.694,559.993 L 239.385,561.339 L 240.15,562.63 L 240.965,563.922 L 241.927,565.158 L 242.939,566.395 L 244.099,567.549 L 245.283,568.73 L 246.567,569.774 L 247.899,570.818 L 249.331,571.835 L 250.811,572.769 L 252.366,573.648 L 253.995,574.473 L 255.673,575.242 L 257.376,575.956 L 259.153,576.616 L 261.004,577.22 L 262.83,577.687 L 264.706,578.127 L 266.631,578.539 L 268.605,578.814 L 270.554,579.116 L 272.504,579.226 L 274.503,579.363 L 276.502,579.363 L 278.476,579.363 L 280.451,579.226 L 282.425,579.034 L 284.375,578.786 L 286.349,578.457 L 288.224,578.072 L 290.149,577.605 L 291.976,577.055 L 293.752,576.451 L 295.529,575.791 L 297.232,575.077 L 298.935,574.308 L 300.539,573.456 L 302.044,572.577"/>
      <path style="fill: #b6c7c9; fill-opacity: 1; stroke: none" fill-rule="evenodd" d="M 402.388 489.765 L 437.259,497.705 L 437.851,496.524 L 438.296,495.342 L 438.715,494.133 L 438.962,492.897 L 439.209,491.66 L 439.258,490.424 L 439.258,489.16 L 439.209,487.951 L 439.011,486.715 L 438.74,485.478 L 438.345,484.269 L 437.876,483.06 L 437.333,481.906 L 436.692,480.725 L 435.951,479.599 L 435.112,478.472 L 434.174,477.373 L 433.212,476.329 L 432.151,475.312 L 431.015,474.351 L 429.806,473.362 L 428.474,472.482 L 427.141,471.631 L 425.685,470.834 L 424.229,470.064 L 422.699,469.378 L 421.119,468.691 L 419.466,468.086 L 417.788,467.537 L 416.06,467.042 L 414.283,466.63 L 412.531,466.273 L 410.68,465.943 L 408.854,465.696 L 407.003,465.503 L 405.127,465.421 L 403.277,465.339 L 401.426,465.339 L 399.55,465.421 L 397.675,465.531 L 395.848,465.723 L 393.997,465.971 L 392.171,466.273 L 390.37,466.657 L 402.388,489.765z"/>
      <path style="fill: none; stroke-opacity: 1; stroke-width: 0.06; stroke: #6c8f93" d="M 434.051 502.184 L 437.234,497.76 L 437.827,496.606 L 438.296,495.397 L 438.666,494.188 L 438.962,492.952 L 439.159,491.715 L 439.233,490.506 L 439.258,489.215 L 439.184,488.006 L 439.011,486.77 L 438.74,485.533 L 438.345,484.324 L 437.876,483.115 L 437.358,481.934 L 436.716,480.807 L 435.951,479.626 L 435.112,478.499 L 434.248,477.4 L 433.237,476.356 L 432.175,475.34 L 431.04,474.351 L 429.831,473.416 L 428.548,472.537 L 427.19,471.658 L 425.784,470.834 L 424.278,470.092 L 422.748,469.378 L 421.169,468.718 L 419.515,468.169 L 417.837,467.592 L 416.134,467.07 L 414.382,466.63 L 412.58,466.273 L 410.804,465.943 L 408.977,465.696 L 407.126,465.531 L 405.251,465.421 L 403.375,465.339 L 401.475,465.339 L 399.624,465.421 L 397.749,465.531 L 395.898,465.696 L 394.071,465.943 L 392.27,466.245 L 390.468,466.63"/>
      <path style="fill: #b6c7c9; fill-opacity: 1; stroke: none" fill-rule="evenodd" d="M 407.349 522.049 L 446.612,532.105 L 447.402,530.786 L 448.044,529.495 L 448.636,528.121 L 449.105,526.747 L 449.426,525.373 L 449.648,523.999 L 449.722,522.571 L 449.722,521.169 L 449.574,519.768 L 449.352,518.394 L 448.957,516.993 L 448.488,515.647 L 447.871,514.3 L 447.205,512.954 L 446.366,511.663 L 445.428,510.426 L 444.416,509.162 L 443.256,507.926 L 442.022,506.772 L 407.349,522.049z"/>
      <path style="fill: none; stroke-opacity: 1; stroke-width: 0.06; stroke: #6c8f93" d="M 441.627 536.666 L 446.563,532.16 L 447.303,530.868 L 448.044,529.495 L 448.611,528.148 L 449.08,526.747 L 449.401,525.373 L 449.648,523.999 L 449.747,522.571 L 449.722,521.169 L 449.574,519.741 L 449.302,518.367 L 448.957,516.993 L 448.488,515.619 L 447.871,514.246 L 447.18,512.899 L 446.316,511.58 L 445.403,510.344 L 444.317,509.08 L 443.207,507.871 L 441.948,506.717 L 434.051,502.184"/>
      <path style="fill: #b6c7c9; fill-opacity: 1; stroke: none" fill-rule="evenodd" d="M 405.695 548.59 L 393.306,586.754 L 395.133,587.359 L 396.984,587.908 L 398.834,588.32 L 400.759,588.65 L 402.635,588.897 L 404.511,589.007 L 406.46,589.007 L 408.36,588.897 L 410.236,588.732 L 412.136,588.403 L 413.987,587.991 L 415.838,587.524 L 417.664,586.919 L 419.466,586.177 L 421.193,585.38 L 422.921,584.474 L 424.599,583.485 L 426.228,582.386 L 427.807,581.259 L 429.313,579.968 L 430.744,578.621 L 432.126,577.22 L 433.459,575.709 L 434.717,574.143 L 435.852,572.522 L 436.938,570.818 L 437.975,569.087 L 438.888,567.274 L 439.702,565.46 L 440.467,563.565 L 441.109,561.614 L 441.701,559.636 L 442.17,557.657 L 442.565,555.624 L 442.812,553.618 L 443.034,551.558 L 443.083,549.497 L 443.083,547.436 L 442.985,545.376 L 442.787,543.315 L 442.491,541.282 L 442.121,539.276 L 441.627,537.298 L 405.695,548.59z"/>
      <path style="fill: none; stroke-opacity: 1; stroke-width: 0.06; stroke: #6c8f93" d="M 393.405 586.782 L 395.256,587.441 L 397.082,587.963 L 398.958,588.403 L 400.833,588.678 L 402.758,588.897 L 404.634,589.007 L 406.534,589.062 L 408.434,588.897 L 410.359,588.732 L 412.235,588.403 L 414.086,587.991 L 415.937,587.469 L 417.763,586.864 L 419.54,586.15 L 421.317,585.325 L 423.02,584.446 L 424.673,583.485 L 426.277,582.386 L 427.857,581.177 L 429.362,579.913 L 430.793,578.539 L 432.175,577.138 L 433.508,575.681 L 434.742,574.088 L 435.927,572.439 L 436.963,570.791 L 438,569.005 L 438.913,567.191 L 439.727,565.378 L 440.467,563.482 L 441.134,561.504 L 441.726,559.553 L 442.17,557.547 L 442.565,555.542 L 442.861,553.536 L 443.034,551.475 L 443.083,549.415 L 443.083,547.354 L 442.96,545.293 L 442.787,543.233 L 442.466,541.199 L 442.047,539.194 L 441.627,537.215"/>
      <path style="fill: #b6c7c9; fill-opacity: 1; stroke: none" fill-rule="evenodd" d="M 248.738 526.912 L 246.863,501.002 L 245.481,501.14 L 244.173,501.304 L 242.791,501.579 L 241.458,501.909 L 240.15,502.294 L 238.867,502.788 L 237.608,503.255 L 236.374,503.887 L 235.141,504.492 L 233.981,505.179 L 232.845,505.948 L 231.76,506.745 L 230.698,507.596 L 229.736,508.531 L 228.773,509.465 L 227.885,510.454 L 227.046,511.498 L 226.281,512.597 L 225.516,513.696 L 224.849,514.877 L 224.282,516.086 L 223.739,517.295 L 223.221,518.504 L 222.826,519.768 L 222.505,521.06 L 222.209,522.351 L 221.987,523.67 L 221.888,525.016 L 221.814,526.307 L 221.814,527.626 L 221.888,528.918 L 222.036,530.264 L 222.258,531.555 L 222.505,532.847 L 222.875,534.138 L 223.27,535.402 L 223.764,536.638 L 224.307,537.847 L 224.924,539.029 L 225.59,540.21 L 226.355,541.282 L 227.12,542.381 L 227.984,543.425 L 228.897,544.414 L 229.835,545.376 L 230.846,546.255 L 231.908,547.107 L 232.993,547.931 L 234.153,548.673 L 235.289,549.36 L 236.523,549.992 L 248.738,526.912z"/>
      <path style="fill: none; stroke-opacity: 1; stroke-width: 0.06; stroke: #6c8f93" d="M 246.863 501.002 L 245.555,501.14 L 244.198,501.304 L 242.865,501.579 L 241.582,501.881 L 240.274,502.266 L 238.99,502.678 L 237.756,503.2 L 236.547,503.75 L 235.338,504.354 L 234.227,505.041 L 233.067,505.783 L 232.006,506.552 L 230.97,507.377 L 229.983,508.283 L 228.996,509.217 L 228.132,510.152 L 227.268,511.196 L 226.503,512.24 L 225.763,513.339 L 225.121,514.465 L 224.504,515.619 L 223.912,516.773 L 223.418,517.982 L 222.974,519.219 L 222.604,520.483 L 222.332,521.746 L 222.061,523.038 L 221.913,524.329 L 221.814,525.621 L 221.814,526.912 L 221.814,528.203 L 221.962,529.495 L 222.11,530.786 L 222.332,532.077 L 222.653,533.341 L 222.974,534.578 L 223.418,535.787 L 223.961,537.05 L 224.504,538.232 L 225.121,539.358 L 225.812,540.485 L 226.528,541.584 L 227.293,542.628 L 228.132,543.645 L 229.045,544.606 L 230.007,545.54 L 230.994,546.42 L 232.056,547.244 L 233.092,548.041 L 234.227,548.755 L 235.387,549.415 L 236.572,550.047"/>
      <path style="fill: #b6c7c9; fill-opacity: 1; stroke: none" fill-rule="evenodd" d="M 348.712 568.51 L 292.543,571.505 L 292.913,573.016 L 293.382,574.555 L 294.024,576.039 L 294.838,577.495 L 295.702,578.896 L 296.763,580.325 L 297.923,581.699 L 299.231,583.072 L 300.687,584.364 L 302.242,585.655 L 303.871,586.864 L 305.672,588.046 L 307.548,589.172 L 309.547,590.271 L 311.645,591.26 L 313.816,592.249 L 316.136,593.129 L 318.456,594.008 L 320.899,594.777 L 323.392,595.519 L 326.008,596.123 L 328.623,596.728 L 331.264,597.222 L 334.028,597.662 L 336.792,598.019 L 339.581,598.294 L 342.345,598.514 L 345.183,598.624 L 348.046,598.706 L 350.859,598.706 L 353.722,598.596 L 356.535,598.431 L 359.324,598.184 L 362.088,597.827 L 364.852,597.442 L 367.517,596.975 L 370.182,596.398 L 372.774,595.849 L 375.34,595.162 L 377.808,594.392 L 380.177,593.568 L 382.497,592.689 L 384.743,591.727 L 386.89,590.738 L 388.938,589.694 L 390.839,588.595 L 392.689,587.441 L 394.392,586.232 L 396.021,584.968 L 397.526,583.677 L 398.859,582.386 L 400.093,581.012 L 401.228,579.583 L 402.191,578.182 L 348.712,568.51z"/>
      <path style="fill: none; stroke-opacity: 1; stroke-width: 0.06; stroke: #6c8f93" d="M 292.593 571.56 L 292.913,573.044 L 293.407,574.555 L 294.024,576.039 L 294.838,577.495 L 295.751,578.951 L 296.763,580.325 L 297.948,581.699 L 299.231,583.072 L 300.687,584.364 L 302.242,585.655 L 303.871,586.864 L 305.672,588.046 L 307.597,589.172 L 309.547,590.271 L 311.645,591.26 L 313.816,592.249 L 316.136,593.129 L 318.456,593.98 L 320.899,594.777 L 323.392,595.519 L 325.958,596.123 L 328.574,596.728 L 331.239,597.222 L 334.003,597.662 L 336.743,598.019 L 339.531,598.267 L 342.32,598.514 L 345.134,598.624 L 347.972,598.706 L 350.81,598.679 L 353.623,598.596 L 356.436,598.376 L 359.274,598.184 L 362.038,597.827 L 364.753,597.415 L 367.468,596.975 L 370.108,596.453 L 372.7,595.849 L 375.242,595.162 L 377.685,594.392 L 380.103,593.568 L 382.423,592.716 L 384.644,591.81 L 386.791,590.793 L 388.815,589.749 L 390.789,588.65 L 392.615,587.441 L 394.343,586.26 L 395.972,584.996 L 397.428,583.759 L 398.81,582.386 L 400.044,581.039 L 401.13,579.638 L 402.141,578.209"/>
    </g>
    <text font-size="13.5467" style="fill: #000000; fill-opacity: 1; stroke: none;text-anchor:start;font-family:sans-serif;font-style:normal;font-weight:700" x="326.094" y="527.554">
      <tspan x="326.094" y="527.554">Cloud</tspan>
    </text>
    <polygon style="fill: #000000; fill-opacity: 1; stroke-opacity: 1; stroke-width: 1.6; stroke: #000000" fill-rule="evenodd" points="419.54,586.15 557.142,694.733 562.593,687.825 725.322,827.446 587.72,718.863 582.269,725.771 "/>
    <text font-size="13.5467" style="fill: #000000; fill-opacity: 1; stroke: none;text-anchor:start;font-family:sans-serif;font-style:normal;font-weight:700" x="513.804" y="766.01">
      <tspan x="513.804" y="766.01">3G or 4G</tspan>
    </text>
    <text font-size="13.5467" style="fill: #000000; fill-opacity: 1; stroke: none;text-anchor:start;font-family:sans-serif;font-style:normal;font-weight:700" x="909.23" y="788.276">
      <tspan x="909.23" y="788.276">Wi-Fi</tspan>
    </text>
    <g>
      <rect style="fill: #008000; fill-opacity: 1; stroke-opacity: 1; stroke-width: 2.35099e-37; stroke: #000000" x="715.32" y="859.496" width="243" height="152" rx="0" ry="0"/>
      <text font-size="13.5467" style="fill: #ffffff; fill-opacity: 1; stroke: none;text-anchor:middle;font-family:sans-serif;font-style:normal;font-weight:700" x="836.82" y="931.137">
        <tspan x="836.82" y="931.137">Signal K</tspan>
        <tspan x="836.82" y="948.07">Server</tspan>
      </text>
    </g>
    <g>
      <rect style="fill: #000000; fill-opacity: 1; stroke-opacity: 1; stroke-width: 2; stroke: #ffffff" x="1079.93" y="732.605" width="91.2459" height="62.6978" rx="0" ry="0"/>
      <text font-size="13.5467" style="fill: #ffffff; fill-opacity: 1; stroke: none;text-anchor:middle;font-family:sans-serif;font-style:normal;font-weight:700" x="1125.55" y="759.595">
        <tspan x="1125.55" y="759.595">Signal K</tspan>
        <tspan x="1125.55" y="776.528">Sensor</tspan>
      </text>
    </g>
    <g>
      <rect style="fill: #000000; fill-opacity: 1; stroke-opacity: 1; stroke-width: 2; stroke: #ffffff" x="1076.86" y="863.448" width="95" height="59.7818" rx="0" ry="0"/>
      <text font-size="13.5467" style="fill: #ffffff; fill-opacity: 1; stroke: none;text-anchor:middle;font-family:sans-serif;font-style:normal;font-weight:700" x="1124.36" y="888.98">
        <tspan x="1124.36" y="888.98">Generic</tspan>
        <tspan x="1124.36" y="905.913">Sensor</tspan>
      </text>
    </g>
    <g>
      <line style="fill: none; stroke-opacity: 1; stroke-width: 6; stroke: #000000" x1="1076.86" y1="893.339" x2="975.53" y2="894.312"/>
      <polygon style="fill: #000000; fill-opacity: 1; stroke-opacity: 1; stroke-width: 6; stroke: #000000" fill-rule="evenodd" points="968.03,894.384 977.981,889.288 975.53,894.312 978.077,899.287 "/>
    </g>
    <g>
      <rect style="fill: #000000; fill-opacity: 1; stroke-opacity: 1; stroke-width: 2; stroke: #ffffff" x="1078.87" y="943.948" width="95" height="59.7818" rx="0" ry="0"/>
      <text font-size="13.5467" style="fill: #ffffff; fill-opacity: 1; stroke: none;text-anchor:middle;font-family:sans-serif;font-style:normal;font-weight:700" x="1126.37" y="969.48">
        <tspan x="1126.37" y="969.48">Generic</tspan>
        <tspan x="1126.37" y="986.413">Sensor</tspan>
      </text>
    </g>
    <g>
      <line style="fill: none; stroke-opacity: 1; stroke-width: 6; stroke: #000000" x1="1078.87" y1="973.839" x2="972.528" y2="973.536"/>
      <polygon style="fill: #000000; fill-opacity: 1; stroke-opacity: 1; stroke-width: 6; stroke: #000000" fill-rule="evenodd" points="965.028,973.515 975.042,968.544 972.528,973.536 975.014,978.544 "/>
    </g>
    <text font-size="13.5467" style="fill: #000000; fill-opacity: 1; stroke: none;text-anchor:start;font-family:sans-serif;font-style:normal;font-weight:700" x="1015.58" y="887.28">
      <tspan x="1015.58" y="887.28">I2C</tspan>
    </text>
    <text font-size="13.5467" style="fill: #000000; fill-opacity: 1; stroke: none;text-anchor:start;font-family:sans-serif;font-style:normal;font-weight:700" x="1011.58" y="966.279">
      <tspan x="1011.58" y="966.279">1W</tspan>
    </text>
    <g>
      <rect style="fill: #ffffff; fill-opacity: 1; stroke-opacity: 1; stroke-width: 2; stroke: #000000" x="710.322" y="864.788" width="40" height="52" rx="0" ry="0"/>
      <text font-size="12.8" style="fill: #000000; fill-opacity: 1; stroke: none;text-anchor:middle;font-family:sans-serif;font-style:normal;font-weight:normal" x="730.322" y="894.669">
        <tspan x="730.322" y="894.669"></tspan>
      </text>
    </g>
    <g>
      <rect style="fill: #ffffff; fill-opacity: 1; stroke-opacity: 1; stroke-width: 2; stroke: #000000" x="711.622" y="955.288" width="40" height="52" rx="0" ry="0"/>
      <text font-size="12.8" style="fill: #000000; fill-opacity: 1; stroke: none;text-anchor:middle;font-family:sans-serif;font-style:normal;font-weight:normal" x="731.622" y="985.169">
        <tspan x="731.622" y="985.169"></tspan>
      </text>
    </g>
    <g>
      <rect style="fill: #ffffff; fill-opacity: 1; stroke-opacity: 1; stroke-width: 2; stroke: #000000" x="863.622" y="977.352" width="50.7" height="38" rx="0" ry="0"/>
      <text font-size="12.8" style="fill: #000000; fill-opacity: 1; stroke: none;text-anchor:middle;font-family:sans-serif;font-style:normal;font-weight:normal" x="888.972" y="1000.23">
        <tspan x="888.972" y="1000.23"></tspan>
      </text>
    </g>
    <g>
      <rect style="fill: #ffffff; fill-opacity: 1; stroke-opacity: 1; stroke-width: 2; stroke: #000000" x="923.622" y="868.352" width="40" height="52" rx="0" ry="0"/>
      <text font-size="12.8" style="fill: #000000; fill-opacity: 1; stroke: none;text-anchor:middle;font-family:sans-serif;font-style:normal;font-weight:normal" x="943.622" y="898.233">
        <tspan x="943.622" y="898.233"></tspan>
      </text>
    </g>
    <g>
      <rect style="fill: #ffffff; fill-opacity: 1; stroke-opacity: 1; stroke-width: 2; stroke: #000000" x="921.922" y="953.852" width="40" height="52" rx="0" ry="0"/>
      <text font-size="12.8" style="fill: #000000; fill-opacity: 1; stroke: none;text-anchor:middle;font-family:sans-serif;font-style:normal;font-weight:normal" x="941.922" y="983.733">
        <tspan x="941.922" y="983.733"></tspan>
      </text>
    </g>
    <text font-size="13.5467" style="fill: #000000; fill-opacity: 1; stroke: none;text-anchor:start;font-family:sans-serif;font-style:normal;font-weight:700" x="749.622" y="833.952">
      <tspan x="749.622" y="833.952">Signal K JSON </tspan>
      <tspan x="749.622" y="850.885">over HTTP/WebSocket</tspan>
    </text>
    <text font-size="12.8" style="fill: #000000; fill-opacity: 1; stroke: none;text-anchor:start;font-family:sans-serif;font-style:normal;font-weight:normal" x="995.322" y="839.852">
      <tspan x="995.322" y="839.852"></tspan>
    </text>
    <path style="fill: none; stroke-opacity: 1; stroke-width: 10; stroke: #000000" d="M 961.602,791.37 A 20.9423,20.9423 0 0 0 946.602,762.37"/>
    <path style="fill: none; stroke-opacity: 1; stroke-width: 10; stroke: #000000" d="M 983.617,791.715 A 37.8353,37.8353 0 0 0 951.522,742.197"/>
    <path style="fill: none; stroke-opacity: 1; stroke-width: 10; stroke: #000000" d="M 1003.79,790.798 A 51.5873,51.5873 0 0 0 960.692,722.023"/>
  </g>
</svg>
