<?xml version="1.0" encoding="UTF-8" standalone="no"?>
<!DOCTYPE svg PUBLIC "-//W3C//DTD SVG 1.0//EN" "http://www.w3.org/TR/2001/PR-SVG-20010719/DTD/svg10.dtd">
<svg width="19cm" height="23cm" viewBox="-164 342 364 456" xmlns="http://www.w3.org/2000/svg" xmlns:xlink="http://www.w3.org/1999/xlink">
  <g id="Background">
    <g>
      <polygon style="fill: #d9d9cd; fill-opacity: 1; stroke-opacity: 1; stroke-width: 2; stroke: #000000" fill-rule="evenodd" points="-77.2625,367.5 -47.3625,367.5 -43.625,371.238 -43.625,438.512 -47.3625,442.25 -77.2625,442.25 -81,438.512 -81,371.238 "/>
      <polygon style="fill: none; stroke-opacity: 1; stroke-width: 0.2; stroke: #000000" points="-77.2625,367.5 -47.3625,367.5 -43.625,371.238 -43.625,438.512 -47.3625,442.25 -77.2625,442.25 -81,438.512 -81,371.238 "/>
      <polygon style="fill: #cdcdcd; fill-opacity: 1; stroke-opacity: 1; stroke-width: 2; stroke: #000000" fill-rule="evenodd" points="-73.525,371.238 -51.1,371.238 -47.3625,374.975 -47.3625,423.562 -51.1,427.3 -73.525,427.3 -77.2625,423.562 -77.2625,374.975 "/>
      <polygon style="fill: none; stroke-opacity: 1; stroke-width: 0.2; stroke: #000000" points="-73.525,371.238 -51.1,371.238 -47.3625,374.975 -47.3625,423.562 -51.1,427.3 -73.525,427.3 -77.2625,423.562 -77.2625,374.975 "/>
    </g>
    <g>
      <line style="fill: none; stroke-opacity: 1; stroke-width: 6; stroke: #000000" x1="-64.7541" y1="542.938" x2="-65.1958" y2="577.604"/>
      <polygon style="fill: #000000; fill-opacity: 1; stroke-opacity: 1; stroke-width: 6; stroke: #000000" fill-rule="evenodd" points="-65.2914,585.103 -70.1636,575.04 -65.1958,577.604 -60.1644,575.168 "/>
    </g>
    <text font-size="13.5467" style="fill: #000000; fill-opacity: 1; stroke: none;text-anchor:start;font-family:sans-serif;font-style:normal;font-weight:700" x="-83.906" y="355.554">
      <tspan x="-83.906" y="355.554">Client</tspan>
    </text>
    <g>
      <rect style="fill: #ffffff; fill-opacity: 1; stroke-opacity: 1; stroke-width: 2; stroke-dasharray: 4; stroke: #000000" x="50.097" y="654.788" width="118.45" height="59.212" rx="0" ry="0"/>
      <text font-size="12.8" style="fill: #000000; fill-opacity: 1; stroke: none;text-anchor:middle;font-family:sans-serif;font-style:normal;font-weight:normal" x="109.322" y="680.275">
        <tspan x="109.322" y="680.275">Course data</tspan>
        <tspan x="109.322" y="696.275">Provider plugin</tspan>
      </text>
    </g>
    <g>
      <rect style="fill: #ffffff; fill-opacity: 1; stroke-opacity: 1; stroke-width: 2; stroke: #000000" x="-120" y="504" width="111" height="38" rx="0" ry="0"/>
      <text font-size="12.8" style="fill: #000000; fill-opacity: 1; stroke: none;text-anchor:middle;font-family:sans-serif;font-style:normal;font-weight:normal" x="-64.5" y="526.881">
        <tspan x="-64.5" y="526.881"></tspan>
      </text>
    </g>
    <text font-size="12.8" style="fill: #000000; fill-opacity: 1; stroke: none;text-anchor:start;font-family:sans-serif;font-style:normal;font-weight:700" x="-103.689" y="524.288">
      <tspan x="-103.689" y="524.288">Course API</tspan>
    </text>
    <g>
      <line style="fill: none; stroke-opacity: 1; stroke-width: 6; stroke: #000000" x1="-63.997" y1="489.801" x2="-62.8154" y2="456.449"/>
      <polygon style="fill: #000000; fill-opacity: 1; stroke-opacity: 1; stroke-width: 6; stroke: #000000" fill-rule="evenodd" points="-64.2625,497.296 -68.9053,487.125 -63.997,489.801 -58.9116,487.479 "/>
      <polygon style="fill: #000000; fill-opacity: 1; stroke-opacity: 1; stroke-width: 6; stroke: #000000" fill-rule="evenodd" points="-62.5499,448.954 -57.9071,459.125 -62.8154,456.449 -67.9008,458.771 "/>
    </g>
    <g>
      <line style="fill: none; stroke-opacity: 1; stroke-width: 6; stroke: #000000" x1="50.097" y1="684.394" x2="14.9178" y2="685.175"/>
      <polygon style="fill: #000000; fill-opacity: 1; stroke-opacity: 1; stroke-width: 6; stroke: #000000" fill-rule="evenodd" points="7.41966,685.342 17.3062,680.121 14.9178,685.175 17.5282,690.118 "/>
    </g>
    <g>
      <rect style="fill: #ffffff; fill-opacity: 1; stroke: none" x="-161.325" y="615.934" width="161.05" height="142.103" rx="0" ry="0"/>
      <ellipse style="fill: #ffffff; fill-opacity: 1; stroke: none" cx="-80.8" cy="758.037" rx="80.525" ry="23.6838"/>
      <ellipse style="fill: #ffffff; fill-opacity: 1; stroke-opacity: 1; stroke-width: 2; stroke: #000000" cx="-80.8" cy="615.934" rx="80.525" ry="23.6838"/>
      <path style="fill: none; stroke-opacity: 1; stroke-width: 2; stroke: #000000" d="M -0.275 615.934 L -0.275,758.037 C -0.275,771.117 -36.3273,781.721 -80.8,781.721 C -125.273,781.721 -161.325,771.117 -161.325,758.037 L -161.325,615.934"/>
      <text font-size="12.8" style="fill: #000000; fill-opacity: 1; stroke: none;text-anchor:middle;font-family:sans-serif;font-style:normal;font-weight:normal" x="-80.8" y="793.602">
        <tspan x="-80.8" y="793.602"></tspan>
      </text>
    </g>
    <text font-size="11.334" style="fill: #000000; fill-opacity: 1; stroke: none;text-anchor:start;font-family:sans-serif;font-style:normal;font-weight:700" x="-144" y="653.75">
      <tspan x="-144" y="653.75">Course Data:</tspan>
      <tspan x="-144" y="667.918">{</tspan>
      <tspan xml:space="preserve" x="-144" y="682.085">   nextPoint: {...}</tspan>
      <tspan xml:space="preserve" x="-144" y="696.253">   previousPoint: {...}</tspan>
      <tspan xml:space="preserve" x="-144" y="710.42">   activeRoute: {...}</tspan>
      <tspan xml:space="preserve" x="-144" y="724.588">   calcValues: {</tspan>
      <tspan xml:space="preserve" x="-144" y="738.755">      ...</tspan>
      <tspan xml:space="preserve" x="-144" y="752.923">   }</tspan>
      <tspan x="-144" y="767.09">} </tspan>
    </text>
    <g>
      <line style="fill: none; stroke-opacity: 1; stroke-width: 6; stroke: #000000" x1="109.269" y1="553.244" x2="109.304" y2="639.647"/>
      <polygon style="fill: #000000; fill-opacity: 1; stroke-opacity: 1; stroke-width: 6; stroke: #000000" fill-rule="evenodd" points="109.307,647.147 104.303,637.149 109.304,639.647 114.303,637.145 "/>
    </g>
    <g>
      <rect style="fill: #ffffff; fill-opacity: 1; stroke-opacity: 1; stroke-width: 2; stroke-dasharray: 4; stroke: #000000" x="19.5156" y="498.25" width="179.484" height="54" rx="0" ry="0"/>
      <text font-size="12.8" style="fill: #000000; fill-opacity: 1; stroke: none;text-anchor:middle;font-family:sans-serif;font-style:normal;font-weight:normal" x="109.258" y="521.131">
        <tspan x="109.258" y="521.131">Deltas: Vessel speed, </tspan>
        <tspan x="109.258" y="537.131">heading, position, etc.</tspan>
      </text>
    </g>
  </g>
</svg>
