<?xml version="1.0" encoding="utf-8"?>
<!-- Generator: Adobe Illustrator 22.0.0, SVG Export Plug-In . SVG Version: 6.00 Build 0)  -->
<svg version="1.1" id="Ebene_1" xmlns="http://www.w3.org/2000/svg" xmlns:xlink="http://www.w3.org/1999/xlink" x="0px" y="0px"
	 viewBox="0 0 567.001 111.458" style="enable-background:new 0 0 567.001 111.458;" xml:space="preserve">
<style type="text/css">
	.st0{fill:#003399;}
	.st1{clip-path:url(#SVGID_2_);}
	.st2{clip-path:url(#SVGID_4_);fill:#003399;}
	.st3{clip-path:url(#SVGID_4_);fill:#FFCC00;}
</style>
<g>
	<g id="Text">
		<path class="st0" d="M207.906,20.226c4.185,0,8.027,0.605,11.526,1.814c3.498,1.211,6.524,2.764,9.074,4.66
			c2.551,1.897,4.545,3.99,5.984,6.278c1.438,2.29,2.19,4.48,2.256,6.573c0,0.589-0.213,1.096-0.638,1.521
			c-0.426,0.426-0.899,0.638-1.422,0.638h-12.851c-0.917,0-1.652-0.13-2.208-0.392c-0.556-0.261-1.128-0.653-1.717-1.177
			c-0.196-0.196-0.507-0.523-0.932-0.981c-0.426-0.457-1.03-0.932-1.815-1.423c-0.785-0.49-1.766-0.915-2.943-1.275
			c-1.177-0.359-2.617-0.54-4.316-0.54c-1.243,0-2.437,0.083-3.581,0.245c-1.145,0.164-2.158,0.426-3.041,0.785
			c-0.883,0.36-1.604,0.868-2.158,1.521c-0.557,0.655-0.834,1.472-0.834,2.453s0.31,1.799,0.932,2.453
			c0.621,0.654,1.667,1.26,3.139,1.814c1.471,0.557,3.417,1.096,5.837,1.619c2.418,0.524,5.427,1.145,9.025,1.864
			c3.596,0.721,6.735,1.636,9.417,2.747c2.681,1.113,4.92,2.501,6.72,4.169c1.798,1.668,3.139,3.629,4.022,5.886
			c0.883,2.256,1.324,4.922,1.324,7.995c0,3.335-0.752,6.312-2.256,8.927c-1.505,2.616-3.614,4.855-6.328,6.72
			c-2.714,1.864-5.919,3.286-9.614,4.268c-3.695,0.98-7.734,1.472-12.115,1.472c-4.448,0-8.502-0.589-12.165-1.767
			c-3.663-1.177-6.818-2.729-9.466-4.659c-2.649-1.929-4.726-4.104-6.229-6.523c-1.505-2.419-2.29-4.871-2.354-7.357
			c0-0.589,0.212-1.095,0.638-1.521c0.425-0.425,0.898-0.638,1.422-0.638h12.851c0.915,0,1.634,0.115,2.158,0.343
			c0.523,0.23,1.045,0.573,1.57,1.03c0.26,0.263,0.653,0.687,1.177,1.275c0.523,0.589,1.227,1.194,2.109,1.814
			c0.883,0.623,1.994,1.162,3.335,1.619c1.339,0.458,2.992,0.687,4.954,0.687c3.465,0,6.359-0.375,8.682-1.128
			c2.32-0.751,3.482-2.109,3.482-4.071c0-0.98-0.426-1.798-1.275-2.452c-0.851-0.653-2.126-1.259-3.826-1.815
			c-1.702-0.555-3.875-1.094-6.523-1.618c-2.649-0.522-5.773-1.178-9.369-1.962c-6.737-1.438-11.658-3.842-14.764-7.21
			c-3.107-3.368-4.66-7.863-4.66-13.489c0-2.811,0.637-5.493,1.913-8.044c1.275-2.55,3.123-4.807,5.542-6.769
			c2.419-1.962,5.347-3.515,8.78-4.66C199.812,20.8,203.654,20.226,207.906,20.226z"/>
		<path class="st0" d="M264.999,30.821c0,0.72-0.262,1.341-0.785,1.864c-0.524,0.524-1.145,0.785-1.864,0.785h-12.36
			c-0.72,0-1.341-0.261-1.864-0.785c-0.524-0.523-0.785-1.144-0.785-1.864v-9.908c0-0.719,0.26-1.34,0.785-1.864
			c0.522-0.523,1.144-0.785,1.864-0.785h12.36c0.719,0,1.34,0.262,1.864,0.785c0.523,0.524,0.785,1.145,0.785,1.864V30.821z
			 M264.999,87.228c0,0.72-0.262,1.341-0.785,1.863c-0.524,0.524-1.145,0.785-1.864,0.785h-12.36c-0.72,0-1.341-0.261-1.864-0.785
			c-0.524-0.522-0.785-1.144-0.785-1.863V41.513c0-0.719,0.26-1.339,0.785-1.864c0.522-0.522,1.144-0.785,1.864-0.785h12.36
			c0.719,0,1.34,0.262,1.864,0.785c0.523,0.524,0.785,1.145,0.785,1.864V87.228z"/>
		<path class="st0" d="M300.607,96.743c2.485,0,4.675-0.573,6.573-1.717c1.896-1.146,2.845-2.862,2.845-5.15v-6.867
			c-0.588,0.721-1.226,1.423-1.913,2.109c-0.687,0.687-1.538,1.309-2.551,1.864c-1.015,0.556-2.256,1.015-3.728,1.373
			c-1.472,0.36-3.287,0.539-5.445,0.539c-2.943,0-5.723-0.441-8.338-1.324c-2.616-0.883-4.905-2.239-6.867-4.07
			s-3.548-4.12-4.758-6.867c-1.211-2.747-1.881-5.984-2.011-9.712c-0.066-0.981-0.098-2.142-0.098-3.482
			c0-1.34,0.032-2.502,0.098-3.482c0.13-3.728,0.8-6.98,2.011-9.761c1.209-2.779,2.796-5.068,4.758-6.867
			c1.962-1.798,4.25-3.154,6.867-4.071c2.615-0.915,5.396-1.373,8.338-1.373c2.158,0,4.022,0.196,5.592,0.588
			c1.57,0.393,2.909,0.883,4.022,1.472c1.111,0.588,2.026,1.226,2.747,1.913c0.719,0.687,1.307,1.325,1.766,1.913v-2.256
			c0-0.719,0.261-1.339,0.785-1.864c0.523-0.522,1.144-0.785,1.864-0.785h11.379c0.719,0,1.34,0.262,1.864,0.785
			c0.522,0.524,0.785,1.145,0.785,1.864v47.774c0,3.662-0.671,6.883-2.011,9.663c-1.341,2.779-3.188,5.101-5.542,6.965
			s-5.167,3.253-8.437,4.169c-3.271,0.915-6.867,1.374-10.791,1.374c-5.102,0-9.271-0.638-12.508-1.913s-5.772-2.813-7.603-4.61
			c-1.832-1.8-3.107-3.679-3.826-5.642c-0.72-1.962-1.113-3.663-1.177-5.101c-0.066-0.721,0.179-1.341,0.735-1.864
			c0.555-0.523,1.193-0.784,1.913-0.784H290.7c1.374,0,2.386,0.652,3.041,1.962c0.457,0.849,1.16,1.602,2.109,2.256
			C296.797,96.415,298.383,96.743,300.607,96.743z M291.975,60.937c-0.132,0.981-0.196,1.783-0.196,2.403
			c0,0.623,0.064,1.423,0.196,2.404c0.196,2.29,0.996,4.186,2.403,5.689c1.405,1.505,3.547,2.256,6.425,2.256
			c2.681,0,4.724-0.735,6.131-2.207c1.405-1.472,2.271-3.154,2.6-5.052c0.326-2.026,0.326-4.087,0-6.181
			c-0.262-1.896-1.113-3.563-2.551-5.003c-1.439-1.438-3.499-2.158-6.18-2.158c-2.813,0-4.938,0.736-6.376,2.208
			C292.988,56.768,292.171,58.649,291.975,60.937z"/>
		<path class="st0" d="M390.857,87.228c0,0.72-0.262,1.341-0.785,1.863c-0.524,0.524-1.145,0.785-1.864,0.785h-12.36
			c-0.721,0-1.341-0.261-1.864-0.785c-0.524-0.522-0.785-1.144-0.785-1.863V62.408c0-2.811-0.687-5.067-2.06-6.769
			c-1.373-1.7-3.531-2.551-6.474-2.551c-2.943,0-5.086,0.851-6.426,2.551c-1.341,1.701-2.011,3.958-2.011,6.769v24.819
			c0,0.72-0.262,1.341-0.785,1.863c-0.524,0.524-1.145,0.785-1.864,0.785h-12.36c-0.72,0-1.341-0.261-1.864-0.785
			c-0.524-0.522-0.785-1.144-0.785-1.863V41.513c0-0.719,0.26-1.339,0.785-1.864c0.522-0.522,1.144-0.785,1.864-0.785h11.87
			c0.719,0,1.339,0.262,1.864,0.785c0.522,0.524,0.785,1.145,0.785,1.864v2.256c0.523-0.653,1.177-1.339,1.962-2.06
			c0.785-0.719,1.732-1.356,2.845-1.913c1.111-0.555,2.403-1.013,3.875-1.373c1.472-0.359,3.188-0.54,5.15-0.54
			c3.139,0,6.016,0.441,8.633,1.324c2.615,0.883,4.855,2.241,6.72,4.071c1.864,1.832,3.318,4.154,4.365,6.965
			c1.045,2.813,1.569,6.148,1.569,10.006V87.228z"/>
		<path class="st0" d="M398.411,75.358c0-4.316,1.651-7.88,4.954-10.692c3.301-2.812,8.682-4.872,16.137-6.181l11.477-1.962
			c0-1.57-0.426-2.86-1.275-3.875c-0.85-1.013-2.322-1.521-4.414-1.521c-1.504,0-2.664,0.213-3.482,0.638
			c-0.818,0.426-1.422,0.802-1.814,1.128c-0.588,0.524-1.145,0.851-1.668,0.981c-0.523,0.132-1.145,0.196-1.863,0.196h-12.459
			c-0.654,0-1.194-0.196-1.619-0.588c-0.426-0.393-0.605-0.915-0.54-1.57c0.13-1.503,0.785-3.073,1.962-4.708
			c1.177-1.634,2.795-3.139,4.855-4.513c2.06-1.373,4.513-2.517,7.358-3.434c2.844-0.915,5.936-1.373,9.27-1.373
			c3.988,0,7.455,0.49,10.398,1.471c2.943,0.981,5.379,2.339,7.309,4.071c1.928,1.733,3.352,3.793,4.268,6.18
			c0.916,2.388,1.373,5.02,1.373,7.896v29.725c0,0.72-0.262,1.341-0.785,1.863c-0.523,0.524-1.145,0.785-1.863,0.785h-12.359
			c-0.721,0-1.342-0.261-1.865-0.785c-0.523-0.522-0.785-1.144-0.785-1.863v-2.747c-1.568,1.962-3.516,3.517-5.836,4.66
			c-2.322,1.144-5.381,1.717-9.172,1.717c-2.813,0-5.314-0.393-7.504-1.178c-2.192-0.785-4.022-1.864-5.494-3.237
			c-1.472-1.373-2.6-3.007-3.384-4.905C398.803,79.642,398.411,77.581,398.411,75.358z M420.777,77.613
			c1.438,0,2.779-0.245,4.021-0.735s2.32-1.16,3.238-2.011c0.914-0.85,1.633-1.848,2.158-2.992c0.521-1.144,0.783-2.37,0.783-3.679
			l-9.023,1.373c-1.768,0.328-3.189,0.883-4.268,1.668c-1.08,0.785-1.619,1.8-1.619,3.041c0,1.243,0.408,2.109,1.227,2.6
			C418.111,77.368,419.271,77.613,420.777,77.613z"/>
		<path class="st0" d="M477.183,87.228c0,0.72-0.263,1.341-0.785,1.863c-0.524,0.524-1.145,0.785-1.863,0.785h-12.36
			c-0.721,0-1.342-0.261-1.864-0.785c-0.524-0.522-0.785-1.144-0.785-1.863V22.875c0-0.719,0.261-1.339,0.785-1.864
			c0.522-0.522,1.144-0.785,1.864-0.785h12.36c0.719,0,1.339,0.262,1.863,0.785c0.522,0.524,0.785,1.145,0.785,1.864V87.228z"/>
		<path class="st0" d="M566.706,86.639c0.196,0.262,0.295,0.622,0.295,1.079c0,0.589-0.213,1.096-0.638,1.521
			c-0.427,0.426-0.933,0.638-1.521,0.638h-15.598c-0.917,0-1.668-0.196-2.257-0.589c-0.588-0.393-1.177-0.947-1.766-1.667
			l-18.54-23.348v22.955c0,0.72-0.263,1.341-0.785,1.863c-0.524,0.524-1.146,0.785-1.864,0.785h-12.851
			c-0.721,0-1.341-0.261-1.864-0.785c-0.523-0.522-0.784-1.144-0.784-1.863V23.856c0-0.719,0.261-1.339,0.784-1.864
			c0.523-0.522,1.144-0.785,1.864-0.785h12.851c0.719,0,1.34,0.262,1.864,0.785c0.522,0.524,0.785,1.145,0.785,1.864v20.699
			l17.265-21.189c0.327-0.393,0.751-0.849,1.275-1.374c0.522-0.522,1.405-0.785,2.648-0.785h15.304c0.589,0,1.095,0.213,1.521,0.638
			c0.425,0.426,0.638,0.932,0.638,1.521c0,0.458-0.098,0.818-0.294,1.079l-24.23,29.625L566.706,86.639z"/>
	</g>
	<g>
		<g>
			<defs>
				<rect id="SVGID_1_" x="0" y="-0.598" width="157.197" height="111.402"/>
			</defs>
			<clipPath id="SVGID_2_">
				<use xlink:href="#SVGID_1_"  style="overflow:visible;"/>
			</clipPath>
			<g class="st1">
				<defs>
					<rect id="SVGID_3_" x="0" y="-0.598" width="157.197" height="111.402"/>
				</defs>
				<clipPath id="SVGID_4_">
					<use xlink:href="#SVGID_3_"  style="overflow:visible;"/>
				</clipPath>
				<path class="st2" d="M0.607,75.285c2.957-1.872,10.882,6.629,21.713,14.362c7.039,5.026,18.661,8.853,28.952,8.143
					c16.757-1.156,23.71-4.386,37.85-11.763c11.088-5.785,22.27-13.948,31.82-19.767c5.646-3.441,12.449-6.567,20.107-8.932
					c9.948-3.071,16.148-0.501,16.148,0.494c0,1.708-11.752,7.285-20.688,13.323C125.019,78.909,119.63,82.676,117,84.402
					c-7.518,4.935-20.387,13.411-25.948,16.092c-8.695,4.192-18.633,8.229-30.899,9.782c-16.073,2.035-33.311-1.882-44.718-10.558
					C1.721,89.287-1.548,76.65,0.607,75.285"/>
				<path class="st2" d="M23.112,84.347c0,0,12.419-32.107,14.23-36.798c5.747-14.886,8.213-22.798,17.158-26.123
					c4.664-1.734,13.022-0.163,16.008,0.066c4.411,0.339,5.467-0.955,6.464-3.449c2.122-5.303,3.954-9.546,3.664-10.414
					c-0.073-0.219-1.474-0.592-1.639-1.253c-0.096-0.386,2.626-6.609,3.278-6.963c0.676-0.365,23.721,8.409,23.914,9.374
					c0.179,0.896-1.929,6.653-2.797,7.135c-0.678,0.377-1.84-0.767-2.7-0.289c-0.607,0.337-1.472,2.853-4.242,9.931
					c-0.868,2.218-0.169,4.714,2.218,6.653c3.085,2.507,9.103,6.307,11.956,11.282c3.761,6.557,1.929,10.501-3.568,24.202
					l-0.385,1.061c0,0-9.427,7.917-26.617,16.06c-10.066,4.768-19.451,7.009-26.897,7.863c-1.202,0.138-4.739-2.688-7.6-2.967
					c-2.857-0.28-10.651,0.869-11.309,0.638C28.789,88.433,23.112,84.347,23.112,84.347"/>
				<path class="st3" d="M74.562,38.485c0,0-12.623-6.709-17.562-2.973c-4.817,3.645-22.751,54.866-22.751,54.866
					s2.231,0.89,6.573,1.863c2.821,0.632,5.248,0.791,8.143,0.746c2.306-0.036,4.192-0.279,4.192-0.279L74.562,38.485z"/>
			</g>
		</g>
	</g>
</g>
<g>
</g>
<g>
</g>
<g>
</g>
<g>
</g>
<g>
</g>
<g>
</g>
<g>
</g>
<g>
</g>
<g>
</g>
<g>
</g>
<g>
</g>
<g>
</g>
<g>
</g>
<g>
</g>
<g>
</g>
</svg>
